<svg xmlns="http://www.w3.org/2000/svg" viewBox="0 0 86 86"><g><g id="uuid-afadc855-2ef6-4381-9ad4-f887c9add59c"><g id="uuid-97f1e8b1-3c64-4ada-94d4-3a7241571bc6"><circle cx="43" cy="43" r="42.5" fill="#dfded3" stroke="#000" stroke-miterlimit="10"></circle><path d="M43.7,69.5s4.1-6.1,6.2-7.7c1.5-1.1,2.4-1.9,7-3.4,1.9-.6,3.5-1.4,3.5-1.4,0,0-1.5,4.4-3.4,5.8s-5.4,2.9-7.7,4c-2.3,1.1-5.7,2.7-5.7,2.7Z" fill="#395051" stroke-width="0"></path><path d="M43.7,69.9c0,0-.2,0-.3-.1-.1-.1-.1-.3,0-.4.2-.2,4.2-6.1,6.3-7.8,1.5-1.2,2.5-1.9,7.1-3.4,1.8-.6,3.5-1.4,3.5-1.4.1,0,.3,0,.4,0s.2.2.1.4c0,.2-1.5,4.5-3.5,6-1.5,1.1-3.7,2.1-5.8,3.1-.7.3-1.4.6-2,.9-2.3,1.1-5.7,2.7-5.7,2.7,0,0,0,0-.2,0ZM59.8,57.7c-.7.3-1.7.7-2.8,1.1-4.5,1.5-5.5,2.2-6.9,3.3-1.5,1.2-4.1,4.7-5.4,6.6,1.2-.6,3.1-1.5,4.5-2.2.6-.3,1.3-.6,2-.9,2-.9,4.2-2,5.6-3,1.3-1,2.4-3.5,3-4.8Z" fill="#000" stroke-width="0"></path><path d="M55.4,61.2c0,0-1.5.3-2.5.9-.2.1-.4.3-.7.4-.5.3-1.1.7-2.1,1.3.2-.4.3-.9.3-.9,0-.2,0-.4-.2-.4-.2,0-.4,0-.4.2-.1.5-.5,1.4-.8,1.7,0,0,0,0,0,0,0,0,0,0,0,0,0,0,0,0,0,0-2.5,1.2-5.3,4.7-5.4,4.9-.1.2,0,.4,0,.5,0,0,.1,0,.2,0s.2,0,.3-.1c0,0,1-1.2,2.3-2.5,0,0,0,0,.1,0,0,0,.3-.3,1.2-.3s.8-.3.9-.3c.2-.1.2-.3,0-.5s-.3-.2-.5,0c-.2.1-.4.2-.5.2s0,0,0,0c.6-.4,1.1-.8,1.7-1.1.2-.1.5-.2.7-.3.5-.1,1.3-.2,2-.3.2,0,.3-.2.3-.4,0-.2-.2-.3-.4-.3h0s-.1,0-.2,0c.4-.3.8-.5,1-.7.2-.2.4-.3.6-.4.9-.5,2.3-.8,2.3-.8.2,0,.3-.2.3-.4s-.2-.3-.4-.3Z" fill="#000" stroke-width="0"></path><path d="M71.8,26c0-.2-.1-.5-.2-.7.3-.4.4-.9.3-1.4-.1-.7-.6-1.3-1.4-1.6-.1,0-.2,0-.3-.1,0-.4-.3-.8-.6-1-.2-.2-.5-.4-.8-.5,0-.6-.3-1.2-.9-1.5-.3-.2-.7-.2-1-.2,0-.2-.1-.3-.2-.4-.2-.2-.4-.3-.7-.3-.2,0-.3,0-.5,0h0c-.1-.3-.4-.5-.7-.5-.1,0-.2,0-.4,0,0,0,0,0,0,0-.3-.9-1.2-1.4-2-1.2-.6.1-1.2.6-1.4,1.2,0,.1-.1.3-.1.4-.1,0-.2,0-.3,0,0,0,0,0,0,0-.1-.2-.3-.3-.5-.4-.3-.2-.7-.3-1.1-.2-.4-.6-.9-1.1-1.6-1.2-.7-.1-1.5.2-2,.8-.2.2-.3.4-.4.6,0,0,0,0-.1,0-.6.2-1.1.6-1.3,1.2,0,.1,0,.3,0,.4-.3,0-.5,0-.7.1,0-.1,0-.3,0-.4-.1-.4-.4-.6-.8-.7-.7,0-1.4.1-2,.5-.2-.2-.5-.5-.7-.6,0,0,0,0-.1,0,0-.5-.3-1-.7-1.4,0,0,0-.2,0-.3,0-.8-.6-1.7-1.6-1.9-.7-.1-1.3,0-1.8.3-.3-.3-.7-.6-1.1-.7-.2,0-.4,0-.6,0-.2-.5-.6-.9-1.1-1.1-.8-.3-1.7,0-2.3.6,0,0-.1.2-.2.3-.7,0-1.4.3-1.8.8-.2.2-.3.4-.4.6-.3,0-.6-.1-1,0-.3,0-.6.2-.9.3-.2-.3-.5-.4-.9-.6-.7-.2-1.6,0-2.1.7-.2,0-.3,0-.5,0-.9.1-1.9.8-2.1,1.9-.2.7,0,1.5.4,2.2-.3.2-.5.5-.7.9-.1.4-.1.8,0,1.3,0,0,0,0-.1,0-.1.1-.3.3-.4.4-.2,0-.3,0-.5,0-.7,0-1.3.3-1.7.9-.3.5-.3,1.1,0,1.6-.4.4-.6,1-.6,1.5,0,1.3,1.4,2.4,2.9,2.4.2,0,.4,0,.7,0,.5.4,1.1.5,1.8.3,0,0,0,0,0,0,.5.5,1.2.6,1.9.4.2,0,.3-.1.5-.2.2,0,.4,0,.6,0,0,0,.2.2.3.2.6,1.9,1.9,3.5,3.6,4.5.6,11.3,1.9,22.8,3.8,34-.9-1-1.8-1.9-2.7-2.9-.5-.5-1-1.1-1.5-1.6-3.2-3.5-6.1-7.3-8.6-11.4-1-1.7-2-3.4-2.9-5.2.7-.8,1.3-1.6,1.8-2.5.8.4,1.7.3,2.3-.4.4-.5.6-1.2.4-1.8,0,0,0,0,0,0,.6.3,1.4.4,2,0,.8-.4,1.3-1.3,1.2-2.3,0-.1,0-.2,0-.3.5-.4.8-.9.8-1.5,0-.5-.1-.9-.4-1.3-.3-.3-.6-.5-1-.6.7-.3,1.2-1,1.2-1.8,0-.9-.5-1.7-1.5-2-.1-.5-.5-1-.9-1.2,0-.2-.2-.5-.5-.7-.7-.6-1.6-.7-2.3-.2-.9.6-.7,1.7-.6,2.2,0,0,0,.1,0,.2-.2.1-.4.3-.6.4,0,0,0,0,0,0h-.1c0-.4,0-.8-.2-1.2-.2-.4-.6-.7-1-.8,0,0,0-.2,0-.3,0-.4,0-.9-.4-1.4-.5-.8-1.5-1.1-2.3-.6-.6.3-.8.9-.9,1.2-.7-.1-1.4.1-1.9.7-.1.1-.2.2-.3.4-.7-.2-1.4,0-1.9.4-.1.1-.2.3-.3.4,0,0,0,0,0,0-.7,0-1.4.2-1.8.8-.2,0-.5-.2-.7-.2-1,0-1.9.5-2.1,1.4-.2.8.1,1.7,1,2.3,0,0,0,0,0,0,0,0,0,0,0,0-.3,0-.6,0-.8,0-.9.4-1.4,1.3-1.3,2.2,0,0,0,.1,0,.2,0,0-.1.1-.2.2-.6.7-.8,1.5-.7,2.2,0,.2,0,.3.2.5-.6.4-1,1.1-.9,1.8,0,.5.3.9.7,1.2-.2,1.1.2,2,1,2.4.2.1.4.2.7.2.1.3.3.5.5.6.2.2.4.2.6.3,0,.2-.1.3-.2.5,0,.5,0,1,.4,1.3.5.5,1.1.7,1.7.6.5.6,1.2,1,2,.9,1,0,1.7-.8,1.9-1.7,0,0,0-.2,0-.3,0,0,.1,0,.2-.1.5-.3.8-.9.8-1.4.6,0,1.3,0,1.9,0,1.9,3.7,4,7.3,6.5,10.6,1.4,2,3,3.9,4.7,5.7.8.8,1.5,1.7,2.3,2.5.8.9,1.7,1.8,2.5,2.7,1.7,1.9,2.8,3.6,3.5,5.3.2,1.1.4,2.3.7,3.4,0,.3.2.5.4.6.1,0,.3.1.5.1s.2,0,.3,0l1.1-.4c.4-.1.7-.6.6-1l-3.5-22.6c3.1-2.1,5.9-4.7,8.4-7.5,1.3-1.5,2.6-3.2,3.6-4.8,1.1-1.7,1.9-3.4,2.5-5,.5-1.3.7-2.6.9-3.8h0c.1,0,.2-.1.3-.2h0c.3,0,.6-.3.8-.5,0,0,0,0,0,0,.8,0,1.6-.2,2.3-.5.7.2,1.5,0,2-.8.3.2.6.4.9.4,0,.2.1.3.2.5.4.8,1.2,1.3,2,1.2.8,0,1.5-.7,1.8-1.6,0-.2,0-.4.1-.6.2,0,.3-.1.5-.2.7-.4,1.2-1,1.3-1.8,0-.3,0-.5-.2-.7,0,0,0,0-.1-.1.1-.1.2-.2.3-.4.2-.3.2-.8,0-1.1.3-.4.4-.9.3-1.4ZM44,27.2h0,0s0,0,0,0ZM44,27.4h.1c0,0,0,0,0,0h-.1q0,0,0,0ZM46.5,49.2c-1,.9-2,1.8-3.1,2.6-.7-6.1-1.2-12.3-1.6-18.5,2.1-.6,4.1-2,5.3-3.9.4,0,.9,0,1.3-.2.2,0,.3,0,.5,0,0,.4.3.7.7.9.3.2.6.3.9.4,0,.8.5,1.6,1.1,2,.9.5,2.1.2,2.7-.7.1-.2.2-.4.3-.6,0,0,.2,0,.2,0,0,0,.1.1.2.2,0,0,0,0,0,0,0,.3,0,.6.2.9.2.3.6.6.9.8,0,0,0,.1,0,.2-.1,2.3-1,4.7-2.7,7.4-1.9,3.1-4.3,5.9-7.1,8.5ZM57.2,27.8s0,0,0,0c0,0,.2.2.3.2,0,0,0,.2-.1.3,0,.1-.1.3-.2.4-.1-.3-.3-.5-.4-.8,0,0,.2,0,.3-.1ZM38.4,29.9c0-.1-.2-.2-.3-.4,0,0,.2,0,.2-.1v.5Z" fill="#000" stroke-width="0"></path><path d="M27.7,23.8c.4-.7,1.5-.5,1.9.1-.1-.9.9-1.7,1.8-1.4-.7,0-1.1-.8-.9-1.4.2-.6,1.1-.9,1.6-.5-.8-.7-1.6-1.7-1.4-2.7.2-1.1,1.9-1.6,2.4-.6-.5-.6.4-1.5,1.1-1.2.7.2,1,1.1,1.1,1.8-.1-.7.4-1.4,1.1-1.5.7-.1,1.4.5,1.5,1.2,0-.7,0-1.5.4-2.1.4-.6,1.5-.6,1.8,0-.5-.8.6-1.8,1.4-1.4.8.4.9,1.6.3,2.2,0-.7.8-1.2,1.5-1,.7.2,1.1,1,.8,1.6.4-.7,1.2-1.4,2.1-1.2.8.2,1.2,1.6.4,1.9.6-.2,1.2.3,1.2,1s-.5,1.1-1.1,1.3c.3-.6,1.1-.9,1.7-.6.6.3.9,1.1.6,1.7.4-1,1.4-1.6,2.4-1.5.1.4,0,.8-.3,1.2.9-.1,1.5.9,1.6,1.7,0,1.2-.4,2.4-1,3.4-.4.8-.8,1.5-1.5,2-.7.5-1.7.6-2.4.1-.2-.2-.4-.4-.6-.5-.4-.2-.8-.1-1.2-.1-4.4.4-8.9-1.5-13.2-.6-1.2.3-2.4,1.3-3.7,1.3-2.1,0-3-2.5-.4-2.8-.6.1-1.5-.5-1-1.2Z" fill="#bca7e9" stroke-width="0"></path><path d="M54.2,19.3c.2-.7,1.4-.8,1.5-.2-.6-.7.3-2,1.2-1.8s1.4,1.3,1.1,2.2c-.2-.6.7-1.2,1.3-.9.6.3.6,1.3.2,1.8.2-.4.5-.9.9-1.2.4-.3,1.1-.2,1.3.2-.4-.7,0-1.8.7-2,.8-.1,1.5,1.1.8,1.6.4-.2.9-.4,1.3-.3.2.5.1,1.1-.2,1.4.3-.6.9-.9,1.6-1,0,.5,0,1,0,1.4.3-.5,1-.9,1.6-.6.6.3.4,1.4-.2,1.3.6,0,1.2.1,1.6.5.4.4.5,1.2,0,1.5.7-.5,1.9-.1,2.1.7.2.9-1,1.7-1.7,1.2.7-.3,1.5.2,1.6.9,0,.7-.6,1.4-1.3,1.3.4,0,.8.2,1.1.5-.4.5-.9.9-1.5,1.2.5-.1,1.1,0,1.4.4-.2.9-1.3,1.6-2.2,1.2.8.6.3,2.1-.6,2.2-1,0-1.7-1.3-1-2-.9.9-1.7,0-2.2-.6-.8-1-1.3-1.8-2.5-2.6-1.5-1-3-1.8-4.6-2.5-2.2-1-4.5-1.8-6.6-2.8.5.1,1,.2,1.4.4-1.2-.9.5-2.1,1.5-1-.1-.3-.1-.6-.2-.7.3.2.9.1,1.2.3-.3-.5-.7-1.3-.4-1.9Z" fill="#bca7e9" stroke-width="0"></path><path d="M46.5,77.4c-1.5-7.5-2.8-15.1-3.7-22.7,0-.1,0-.2,0-.3,3.2-2.1,6.1-4.7,8.7-7.6,1.3-1.5,2.5-3.1,3.5-4.7,1-1.5,1.8-3.1,2.4-4.8.7-1.9,1-3.8.8-5.8,0,0,0,0,.1,0,0,0,0,0,0,.1,0,.2.1.5.4.5,2.4.2,4.7-.5,6.6-2,.2-.2.3-.4.1-.6-.1-.2-.4-.3-.6-.1-1.6,1.3-3.8,2-5.9,1.8,1.4-.7,2.6-1.6,3.5-2.9.1-.2.2-.5,0-.6-.2-.2-.5-.2-.6,0-.8,1.1-1.8,1.9-2.9,2.5.6-1.3,1.1-2.6,1.4-4,.1-.6-.8-.8-.9-.2-.2.9-.5,1.8-.8,2.7-.2.4-.4.8-.6,1.3-.1.2-.2.4-.3.6,0,0,0,0,0,0-1-1.2-1.6-2.6-1.8-4.1,0-.2-.2-.4-.5-.4-.2,0-.5.2-.4.5.1.9.4,1.7.7,2.5-.3-.4-.6-.8-.9-1.2-.3-.5-1.1,0-.8.5.6.8,1.2,1.6,1.9,2.3.4.4.7.7,1.1,1,.2.1.3.2.5.2.2,3.3-1.1,6.5-2.8,9.3-2,3.2-4.5,6.2-7.3,8.7-1.4,1.3-2.9,2.5-4.5,3.5-.8-7-1.4-14-1.8-21,0,0,.2,0,.2,0,2.6-.6,4.9-2.5,5.9-5,.2-.5-.6-1-.8-.4-.9,2.3-3,4-5.4,4.6,0,0,0,0,0,0,0,0,0,0,0,0,1.6-1.3,2.7-3.2,3-5.2,0-.6-.8-.8-.9-.2-.3,1.7-1.1,3.3-2.4,4.4,0,0-.2,0-.3-.1v-5.3c-.1-.6-1.1-.5-1,0l.2,6.6c0,0,0,.2,0,.2,0,0,0,.1,0,.2-1.7-1.1-2.9-3-3-5,0-.6-1-.5-.9,0,.2,2.5,1.7,4.9,4,6.1.7,12.8,2.2,25.6,4.4,38.2-1.8-2.7-4.2-5.1-6.4-7.4-3.3-3.5-6.2-7.4-8.8-11.6-1.2-1.9-2.2-3.9-3.2-5.9,1.3-1.3,2.4-3,3-4.8,0-.2,0-.5-.2-.6-.2-.1-.5,0-.6.2-.5,1.5-1.3,2.9-2.4,4,.3-1.5.5-2.9.8-4.4.1-.6-.8-.8-.9-.2-.2,1.2-.5,2.4-.7,3.6-.1-.2-.3-.4-.4-.6-.5-.8-.8-1.7-.7-2.6,0-.6-.8-.8-.9-.2-.2,1,.1,2,.6,2.9.2.4.5.9.8,1.3,0,0,0,0,0,0,0,0,0,.1,0,.2,0,0,0,.2.1.3-1.5-.8-3.2-1.2-4.9-1.2-.2,0-.4.3-.4.5,0,.3.2.4.5.4,1.1,0,2.2.2,3.2.6-1,0-2.1.2-3.1.6-.6.2-.3,1.1.3.9,1.6-.5,3.2-.7,4.9-.4,0,0,0,0,0,0,0,0,.1,0,.2,0,1.9,3.8,4.1,7.5,6.6,10.9,1.4,2,3,3.9,4.6,5.7,1.6,1.8,3.3,3.4,4.8,5.2,1.5,1.7,2.9,3.6,3.7,5.7.2,1.2.4,2.3.7,3.5l1.3-.6Z" fill="#395051" stroke-width="0"></path><path d="M15.7,41c-.8,0-1.3,1.2-.7,1.7,0,1-.1,2-.2,3.1,0,.5,0,1,.4,1.2.2.2.5.2.8.2.3,0,.7.3,1,.3.7,0,1.3-.5,1.5-1.1.3-.6.3-1.3.3-2,.2,0,.4,0,.6,0,.2-.3.5-.6.9-.8,1.3-.9,2.5-1.9,3.8-2.8.3.3.7.7,1.2.8.5.1,1,0,1.2-.5.9.3,1.9,0,2.9-.4.5-.2,1-.4,1.5-.7,1.1-.9,1.2-2.7.5-4-.7-1.3-2-2.1-3.4-2.6-2.6-1-5.6-.9-7.6,1.2-.9.9-1.4,2.1-2.3,3-.8.9-2.2,1.9-2.2,3.3Z" fill="#395051" stroke-width="0"></path><path d="M41.2,22.9c-.6-.5-1.3-1-2.1-1.3-.2,0-.5-.2-.7,0-.3.1-.4.4-.6.6-.5.5-1.5,0-2.2.4-.3.1-.4.4-.7.6-.5.3-1.2.3-1.7.4-1.3.3-2.2,2-1.7,3.2.5,1.3,2.3,1.9,3.4,1.1.7-.4,1.2-1.1,1.9-1.3.7-.2,1.4.2,2,.3,1.2.2,2.4-.2,3.6-.4.3,0,.6,0,.9,0,.5.2.8.8,1.3.8.3,0,.5,0,.8,0,.2,0,.4.3.6.4.8.7,2.1.4,2.8-.3.7-.8.8-2,.4-3-.1-.3-.3-.7-.4-1.1,0-.3,0-.6-.1-.8-.2-.7-.9-1.1-1.6-1.3s-1.4-.3-2-.8c-.3-.2-.5-.5-.8-.6-.3-.1-.7,0-1.1,0-.9,0-1.6-.9-2.5-1.2-1.5-.5-3,.4-4.3,1.3-.5.4-1.1.8-1.4,1.3-.3.6-.4,1.3,0,1.8l6-.4Z" fill="#395051" stroke-width="0"></path><path d="M41.2,21.8c.5,0,1.1.5,1,1,0,.5-.6,1-1.1,1-.3,0-.5-.2-.7-.3-.5-.3-1-.5-1.5-.8,0,.6-.4,1.2-1,1.3,0,.7-.9,1.1-1.6,1.2,1,.4,2.2.2,3-.6.2.4.5.8.7,1.2.4-.4,1.2-.4,1.5,0,.3-.2.5-.4.7-.7.2.2.5.4.8.4.3-.5.7-1.1.5-1.7,0-.2-.1-.4,0-.5.1-.4.6-.4.9-.1.2.2.4.5.3.8,0,.4-.2.8.1,1,.3.2.6-.1.9,0,.5.2.2,1,.3,1.5.1.6.9.8,1.4.5.5-.3.7-.8.6-1.3,0-.5-.4-1-.8-1.3.3,0,.7,0,1,0,0,0,.1,0,.2,0,0,0,0,0,0-.1,0-.8-.6-1.5-1.3-1.9-.7-.4-1.5-.6-2.2-.9-1-.5-2.5-2.6-3.8-2.5-1.6.2,0,2.9-.2,2.9Z" fill="#395051" opacity=".5" stroke-width="0"></path><path d="M54,23.8c-.9-.2-2,.1-2.5.9-.6.8-.7,1.9-.2,2.7.6,1.1,2.3,1.5,3,.5.3-.4.5-1.1,1.1-1.1.3,0,.5.3.8.4.6,0,1.1-.7,1.6-.4.2.1.3.5.5.6.3.2.8,0,1.2,0,.6,0,1,.5,1.4.9.4.4,1.1.7,1.5.3.5.9,1.3,1.8,2.3,1.6.3,0,.5-.2.8-.3.3,0,.6,0,.9-.1.6-.1,1.2-.6,1.4-1.2.2-.6,0-1.3-.5-1.8.4-.4.4-1,.3-1.5-.2-.5-.6-.9-.9-1.3-.4-.4-.8-.9-1.3-1.2-1.4-1-3.3-.9-5-.9-1.3,0-2.7-.1-4,0-.4,0-3.4,1.7-2.2,1.9Z" fill="#395051" stroke-width="0"></path><path d="M59.6,23.3c.5-.3,1-.5,1.5-.8.1,0,.2-.1.4-.1.1,0,.2.1.3.2.6.7.8,1.9.1,2.6-.7.7-2.1.5-2.3-.5-.7,0-1.7-.2-1.8-.9-.5,0-1.1.2-1.4.7-.2.4-.3.9-.7.9-.3,0-.4-.4-.7-.5-.5-.2-.8.5-.9,1,.3.2.8-.2,1.1,0,.2.2.1.5.3.8.2.3.6.3.9.2.3,0,.6-.3.9-.3s.7.3.5.6c.3-.1.5-.2.8-.2.4,0,.8.3,1.2.4.4.1.9,0,1-.4,0,.3.3.6.6.6.3,0,.7.1.8.4,0,.1,0,.3.1.4.2.2.6.1.7-.1.2-.2.2-.6.2-.9s.2-.6.5-.7c.5,0,.7.6.6,1-.1.5-.4.9-.4,1.3.5,0,1-.2,1.5-.3.2,0,.4,0,.5-.2.4-.4-.2-1.1,0-1.7.3,0,.5.1.8.2,0-.9-.6-1.8-1.4-2.3,0,.4.7.3.8,0,.1-.3,0-.7-.3-1-1.2-1.6-3.4-2-5.4-2.3-.5,0-2.4-.5-2.7.2-.2.5,1.2,1.7,1.6,1.5Z" fill="#395051" opacity=".5" stroke-width="0"></path><path d="M24.9,34.9c.4,0,.8.3.8.7,0,.4-.2.8-.6.9.6.3.8,1.3.3,1.7-.5.5-1.5,0-1.5-.6-.1.5-.3,1-.7,1.3-.4.3-1,.3-1.3,0-.3-.5,0-1.3-.4-1.7-.3-.3-.9-.2-1.2.1-.3.4-.3.9-.3,1.3-.2,0-.4.2-.5.3.4,0,.5.7.1.9s-.8,0-1.1-.3c-.2-.3-.3-.8-.2-1.2-.7.2-1.2.9-1.2,1.6,0,.7.6,1.4,1.3,1.5,0,.9-1.2,1.6-2,1-.4.3-.2,1.2.3,1.3,0,.5-.2,1-.7,1.1.3.4.5.9.6,1.5,1-.7,1.8-1.6,2.3-2.6.1-.3.3-.6.6-.7.1,0,.3,0,.4-.2.4-.3,0-1.2.5-1.5.4-.2.9.2,1.3,0,.5-.2.5-1,.9-1.2.3-.2.7,0,1,.2.6.3,1.2.5,1.8.3.6-.1,1.1-.8,1-1.4.3.3.8.2,1.1,0s.3-.8,0-1.1c-.1-.2-.3-.3-.4-.5-.1-.4.3-.8.8-.7.4,0,.7.5.8.9s.2.8.5,1.2c.7.4,1.5-.5,1.9-1.2-.3-.4-.7-.7-1.1-.8.5-.6.4-1.5-.1-2.1-.5-.6-1.2-1-1.9-1.3-.7-.3-2.7-1.4-3.5-1-.6.3-.4,2.3.2,2.3Z" fill="#395051" opacity=".5" stroke-width="0"></path><polygon points="15.4 38 15.4 38 15.4 38 15.4 38 15.4 38" fill="#a690dd" stroke-width="0"></polygon><path d="M14.3,45.3s0,0,0,0h0s0,0,0,0c0,0,0,0,0,0h0s0,0,0,0Z" fill="#a690dd" stroke-width="0"></path><path d="M17.3,37.8c-.3,0-.5,0-.8,0,0-.4-.4-.7-.9-.8,0,0-.1,0-.2,0-.1-.1-.3-.2-.5-.1-.5.2-.8.7-.8,1.3,0,.2,0,.4.2.6-.2.1-.4.3-.6.5-.3.4-.6.9-.5,1.5,0,.3.2.5.5.6.2,0,.4,0,.6,0-.2.2-.3.5-.3.7-.3,0-.6,0-.9,0-.4.2-.6.6-.6,1,0,.5.5.7,1,.8,0,.2-.2.4-.2.6-.2.6-.1,1.3.5,1.6.5.2,1.1,0,1.4-.3.2-.2.3-.4.3-.6.1,0,.3.1.4.1.5,0,1-.1,1.3-.6.3-.5.1-1.1-.3-1.5-.2-.2-.3-.3-.5-.3.1-.2.2-.3.3-.6,0-.3,0-.7-.2-.9.3,0,.5-.1.7-.3.6-.5.4-1.4-.1-1.9.2-.2.4-.4.6-.6.2-.3-.1-.7-.4-.7ZM16,42s0,0,0,0c0,0,0,0,0,0,0,0,0,0,0,0,0,0,0,0,0,0,0,0,0,.1-.2.2,0-.3-.4-.5-.6-.4,0,0,.2-.2.2-.2,0,0,0,0,.2,0,0,0,0,0,0,0,0,0,0,0,0,0,0,0,0,0,.1,0,0,0,0,0,0,0,0,0,0,0,0,0,0,0,0,0,0,0,0,0,0,0,0,0,0,0,0,0,0,0,0,0,0,0,0,0,0,0,0,0,0,0ZM16.6,44.1s0,0-.1-.1c-.2-.2-.5-.2-.8,0,0,0,0,0,0,0,0,0,0,0,0-.1,0,0,0,0,0-.1,0,0,0-.1,0-.2.3,0,.6,0,.8.2,0,0,.2.1.2.2,0,0,0,0,0,.1ZM14.3,45.3s0,0,0,0h0s0,0,0,0c0,0,0,0,0,0,0,0,0,0,0,0,0,0,0,0,0,0,0,0,0,0,0,0,0,0,0,0,0,0,0,0,0-.1,0-.2,0-.2,0-.4.1-.5,0,0,0,0,0-.1,0,.2,0,.3-.1.5,0,.1,0,.2,0,.3,0,0,0,0,0,0,0,0,0,0,0,0ZM15.3,40.7c0,0,0,.1.1.2-.1,0-.2,0-.4,0,0,0,.2-.2.2-.2ZM14.4,40.1s0,0,.1,0c0,0,0,0,0,0,0,0,0,0-.1.1,0-.1,0-.2.1-.3ZM13.7,43c.1,0,.3,0,.4,0,0,0-.1,0-.2,0,0,0-.2,0-.3,0,0,0,0,0,0,0,0,0,0,0,0,0ZM15.7,38.2c0,0-.1,0-.2,0,0,0,0,0,0,0,0,0,0,0,0,0,0,0,0,0,0,0h0s0,0,0,0c0,0,0,0,0,0,0,0,0,0,0,0,0,0,0,0,0,0,0,0,0,0,0,0,0,0,0,0,0,0,0,0,0,0,0,0,0,0,0,0,0,0,0,0,0,0,0,0,0,0,0,0,0,0,0,0,0,0,0,0,0,0,0,0,0,0,0,0,0,0,0,0,0,0,0,0,0,0,0,0,.1,0,.1,0,0,0,0,0,0,0,0,0,0,0,0,.1Z" fill="#a690dd" stroke-width="0"></path><polygon points="15.4 38.3 15.4 38.3 15.4 38.3 15.4 38.3 15.4 38.3" fill="#a690dd" stroke-width="0"></polygon><path d="M15.4,38.3c0,0,0,0,0,0h0Z" fill="#a690dd" stroke-width="0"></path><path d="M15.4,38s0,0,0,0c0,0,0,0,0,0Z" fill="#a690dd" stroke-width="0"></path><polygon points="16.3 34.1 16.3 34.1 16.3 34.1 16.3 34.1" fill="#a690dd" stroke-width="0"></polygon><path d="M20.7,34.5c-.3-.2-.7-.4-1-.4,0,0,0-.1.1-.2.2-.3.2-.7,0-1-.1-.2-.4-.4-.7-.4-.6,0-1.1.4-1.2,1,0,.2,0,.3,0,.5,0,0,0,0,0-.1-.3-.4-.7-.7-1.2-.8-.5,0-1,.2-1.2.7-.2.5.2,1,.6,1.3.2.1.4.3.6.4-.1.2-.2.5-.2.8,0,.6.6,1.1,1.2,1.2.6,0,1.2-.3,1.4-.9,0-.2,0-.5,0-.7.6,0,1.3-.2,1.7-.6.2-.2.2-.5,0-.6Z" fill="#a690dd" stroke-width="0"></path><path d="M25.6,38.3c-.6-.2-1.2,0-1.7.4-.1-.1-.3-.2-.4-.3-.3-.2-.7-.6-1.2-.5-.4,0-.7.4-.7.8,0,.4.2.8.4,1.1.1.2.3.3.5.4,0,0,.1,0,.2.1-.2.2-.4.6-.5.9-.2.7,0,1.9.9,2,.5,0,.9-.3,1.1-.7.1-.3.2-.6.2-.9.2,0,.5,0,.7,0,.4,0,.9,0,1.1-.4.2-.4,0-.8-.2-1.1,0,0,0,0-.1,0,.1-.2.2-.4.3-.6.1-.5-.1-1-.6-1.2ZM25.2,39.1c0,0,0,.2,0,.2,0,0,0,0,0,.1,0,0,0-.1,0-.2,0,0,0,0,0-.1,0,0,0,0,0,0ZM22.9,39.1c.1,0,.2.2.3.2,0,0,0,0-.1.1,0,0-.1,0-.2-.1-.2-.1-.3-.3-.4-.5,0,0,0,0,.1,0,0,0,.2,0,.2.1ZM23.2,42.3c0,0,0-.2-.1-.2,0,0,0,0,0-.1,0,0,0,0,0,0,0,0,.2,0,.3,0,0,0,0,.1,0,.2,0,0,0,.1-.1.2ZM24.6,40.7s0,0,0,0c0,0,.2,0,.3,0,0,0,.2,0,.3,0-.2,0-.4,0-.6,0Z" fill="#a690dd" stroke-width="0"></path><path d="M20.7,46.7c-.2,0-.4,0-.5,0,0-.2,0-.3,0-.5-.1-.5-.6-.8-1.1-.8-.5,0-.9.4-1.2.7-.3.4-.6.8-.9,1.2,0,.1-.1.3,0,.4,0,0-.2.1-.3.2-.4.3-.6.8-.3,1.3.4.5,1,.4,1.6.1,0,.1,0,.3.2.4.2.4.8.7,1.3.7.5,0,.9-.4,1-1,0-.3,0-.5,0-.7.2,0,.5-.1.6-.3.3-.2.5-.6.4-1,0-.4-.3-.7-.7-.8ZM17.3,48.6c0,0,.1,0,.2,0,.1,0,.3-.2.4-.2-.1.1-.3.2-.4.3,0,0,0,0-.1,0ZM19.3,49.6c-.2,0-.3,0-.4-.2.2,0,.4,0,.5-.1,0,0,0,0,0-.1,0,0,0,0,0,.1,0,.1,0,.3-.2.3ZM20.4,47.7s0,0,0,0c-.2.2-.5.1-.8.1,0,0-.1-.1-.2-.2,0,0,0,0,0,0,.1,0,.2,0,.4,0,.2,0,.3,0,.5,0,0,0,.1,0,.2,0,0,0,0,0,0,0,0,0,0,0,0,0Z" fill="#a690dd" stroke-width="0"></path><path d="M28.4,34c-.3-.3-.8-.3-1.2-.1,0-.2,0-.3-.2-.4-.7-.2-2.1-.6-2.4.4,0,.4,0,.8.3,1,0,0,.1.1.2.1,0,0,0,.2-.1.3-.2.4,0,.9.2,1.3.3.4.8.5,1.2.4,0,0,.1,0,.2,0,0,0,0,.1.1.2.3.3.7.4,1.1.1.4-.2.5-.7.4-1.1,0-.2-.1-.3-.2-.4.2,0,.3-.2.5-.4.2-.4.2-.9-.1-1.2ZM27.6,34.7c0,0,0,0,0,0,0,0,0,0,0,0,0,0,0,0,0,0,0,0,0,0,0,0-.1.1-.3.1-.5.2,0,0,0,0,0,0,.1,0,.2,0,.3-.1ZM25.8,34.2c.2,0,.3,0,.5,0,0,0-.2,0-.2,0,0,0,0,0,0,0-.2,0-.4,0-.5,0,0,0-.1,0,0,0,0,0,0,0,0,0,0,0,0,0,0,0,0,0,0,0,0,0,0,0,0,0,0,0,0,0,.2,0,.3,0ZM26.1,36s0,0,0,0c0,0,0,0,0,0,0,0-.1,0,0,0,0,0-.1,0,0,0,0,0,0,0,0,0,0,0,0,0,0,0,0,0,0,0,0,0,0,0,0,0,0,0,0,0,0,0,0,0,0,0,0,0,0,0,0,0,0,0,0,0,.2,0,.4-.1.5-.3,0,0,.1,0,.2,0,0,0,0,0,0,0-.2,0-.3.2-.3.4,0,0,0,0,0,0,0,0,0,0,0,0,0,0,0,0,0,0,0,0,0,0,0,0,0,0,0,0,0,0ZM27.3,36.2s0,0,0,0h0s0,0,0,0c0,0,0,0,0,0,0,0,0,0,0,0,0,0,0,0,0,0,0,0,0,0,0,0,0-.1-.1-.2-.2-.4,0,0,.2.2.2.2,0,0,0,0,0,0Z" fill="#a690dd" stroke-width="0"></path><path d="M34.2,37.2c-.4-.5-1-.5-1.6-.3,0-.2,0-.5-.2-.7-.1-.2-.3-.2-.5-.2-.5.1-.8.5-.9.9-.4-.3-.9-.4-1.4-.4-.2,0-.4.2-.4.5,0,.7.4,1.3.9,1.8-.6.5-.8,1.3-.5,1.9.3.6,1.1.6,1.5.1,0,0,.2-.2.2-.3,0,0,0,0,0,0,.4.5,1,.6,1.5.4.5-.3.8-.8.7-1.4,0-.3-.1-.6-.3-.8.2,0,.4-.2.6-.3.4-.4.7-.9.3-1.4ZM31.7,38.6s0,0,0,0c0,0,0-.1,0-.2.1,0,.3-.1.4-.2-.1.1-.3.3-.4.5ZM30.7,38.3c-.3-.2-.5-.4-.6-.7.3.1.5.4.6.7,0,0,0,0,0,0Z" fill="#a690dd" stroke-width="0"></path><path d="M32.6,32.9c0-.1,0-.3,0-.5,0-.4-.4-.7-.8-.7,0-.3-.1-.6-.4-.8-.3-.3-.8-.4-1.1-.2-.4.3-.3.8-.2,1.3,0,.3.1.6.2.9-.8.2-1.6.9-1.7,1.7,0,.3,0,.7.3.8.2.1.5.1.8,0,0,0,.1,0,.2,0,0,0,0,0,.1,0,0,0,0,.1,0,.2,0,.5.5,1,1,1.1,1,.3,1.4-.7,1.5-1.6.3,0,.6,0,.8,0,.4-.1.8-.6.8-1,0-.8-.8-1.2-1.5-1.3ZM30.8,33.7s0,0,0,0c0,0-.2,0-.2,0,0,0-.1,0-.2,0,.1,0,.3-.1.4-.1ZM31.3,35.9c-.2,0-.3-.2-.3-.4.1,0,.2,0,.3,0,.1,0,.2-.1.3-.2,0,.4,0,.8-.3.7ZM33,34.3c-.2,0-.3,0-.5,0,0,0,0,0,.1-.1,0,0,0-.2,0-.3.2,0,.5.1.6.3,0,.1-.1.2-.2.2Z" fill="#844faa" stroke-width="0"></path><path d="M24.5,33.2c-.3-.2-.7-.2-1.1-.2,0-.2,0-.5,0-.7,0-.3-.4-.5-.7-.4-.3.2-.5.4-.7.6,0,0,0,0,0,0,0-.2-.2-.5-.4-.6-.3-.3-.9-.4-1.3,0-.4.4-.2.9,0,1.3.1.3.3.6.5.8-.3.2-.6.5-.8.8-.3.4-.7,1-.4,1.6.1.3.4.5.7.5.3,0,.5-.2.8-.3.2-.2.5-.4.7-.6,0,.1.2.3.3.4.3.3.8.3,1.2.2.3-.1.5-.4.6-.8,0-.1.1-.3,0-.4,0-.2-.1-.3-.2-.5.2,0,.5-.2.7-.4.4-.3.6-.9.1-1.2ZM21.3,34.8c-.2.3-.4.6-.6.8,0,0-.1.1-.2.2.1-.2.2-.4.4-.6.2-.2.4-.4.6-.5,0,0-.1.1-.2.2ZM22.6,35.6c-.2-.2-.3-.5-.4-.7,0-.3-.4-.4-.6-.3,0,0,.1,0,.2-.1,0,0,0,0,0,0,0,0,.1,0,.2.1.1,0,.2,0,.3,0,0,0,0,.2,0,.3,0,.2.2.4.4.4,0,0,.1.2.2.2,0,0,0,0,0,0,0,0-.2,0-.3,0Z" fill="#844faa" stroke-width="0"></path><path d="M22.7,42.1c-.3-.2-.6-.2-.9,0,0,0,0,0,0-.1.2-.3.3-.7.2-1-.1-.4-.5-.7-.9-.5-.4.1-.7.6-.9,1,0,0,0,.1-.1.2-.2-.2-.4-.4-.6-.6-.5-.2-1.1-.1-1.5.3-.4.4-.3,1.1.1,1.4.2.1.4.2.6.3.1,0,.2,0,.3.1,0,0,0,0,0,0,0,0,0,0,0,0,0,0,0,0,0,0,0,0,0,0,.1.1-.1.2-.3.3-.4.5-.2.3-.3.6-.4.9-.1.5.2.9.7.9.4,0,.8-.3,1-.6.1-.1.3-.3.4-.5,0,.1.2.3.3.4.3.4.7.6,1.2.5.5-.2.8-.8.7-1.3,0-.3-.2-.5-.4-.6.3-.2.5-.5.6-.8,0-.2,0-.5-.2-.6ZM18.8,41.8s0,0,0,0c0,0,0,0,0,0,0,0,0,0,0,0,0,0-.1.1-.2.2,0,0,0,0,0,0,0,0,0,0,0,0,0,0,0,0,0,0,0,0,0,0,0,0,0,0,0,0,0,0,0,0,0,0,0,0,0,0,0,0,0,0,0,0,0,0,0,0,0,0,0,0,0,0,0,0,0,0,0,0,0,0,0,0,0,0,0,0,0,0,.1,0Z" fill="#844faa" stroke-width="0"></path><path d="M29.9,39.7c-.2,0-.5,0-.7,0,0,0,0,0,0,0,0-.2-.2-.4-.4-.5-.2-.1-.5-.2-.6,0-.2.2-.3.4-.4.7-.4-.2-.8-.3-1.2-.4-.3,0-.6.3-.5.6.2.5.5.9,1,1.2-.4.7-.4,1.5,0,2.2.2.2.5.3.7,0,.2-.2.3-.4.5-.7.1.2.3.4.5.5.4.3.9.3,1.3,0,.3-.4.3-.9.1-1.3,0-.2-.2-.3-.4-.4.2-.1.4-.3.5-.5.4-.5.2-1.1-.4-1.3ZM28,41.4s0,0,0,0c0,0,0,0,0,0,0,.2-.2.3-.3.5,0-.2.1-.4.3-.6ZM29.1,40.8s0,0,0,0c0,0,0-.2,0-.2.1,0,.2,0,.3,0,0,0,0,0,0,0-.1,0-.3.2-.4.3,0,0,0,0,0,0ZM29.4,42.5s0,0,0,0c0,0,0,0-.1-.1-.1-.1-.3-.3-.3-.5.2,0,.3.2.4.3,0,0,0,0,0,0,0,0,0,0,0,0,0,0,0,0,0,0,0,0,0,0,0,0Z" fill="#844faa" stroke-width="0"></path><path d="M38.9,25.1c-.4-.3-.9-.3-1.3,0,0,0-.1,0-.2,0-.3-.4-.5-.8-.8-1.1-.2-.3-.6-.6-1-.5-.4.1-.6.6-.6,1,0,.3.2.6.3.8,0,.1.2.2.2.3,0,0,0,0,.1.2,0,0,0,.1,0,0,0,0,0,0,0,.1,0,0,0,0,0,0,0,0,0,0,0,0,0,0,0,0,0,0,0,0-.1.1-.2.2-.3.2-.5.5-.6.9,0,.4,0,.8.2,1.1.1.2.3.2.5.2.3,0,.5-.2.8-.4.2.3.4.5.7.5.8.2,1.6-.7,1.3-1.5,0,0,0-.2-.1-.3,0,0,0,0,0,0,0,0,0,0,.1,0,.2-.2.5-.3.7-.6.2-.4.1-.8-.2-1.1ZM36.2,27c0,0,0,0,0,.1-.1,0-.2.2-.3.2,0,0,0-.1,0-.2,0,0,.1-.2.2-.2ZM38.1,25.8c0,0-.2.1-.3.2,0,0,0,0,0,0,0,0,0,0,0-.1.1,0,.3-.1.4-.2,0,0,.1,0,.2,0,0,0,0,0,0,0,0,0,0,0-.1,0Z" fill="#844faa" stroke-width="0"></path><path d="M34.4,24.1c-.3-.4-.7-.5-1.2-.4,0-.2,0-.5,0-.7-.2-.6-.9-.5-1.3-.2-.3.3-.5.7-.7,1.1-.3-.2-.7-.4-1.1-.3-.4,0-.7.4-.7.8,0,.5.5.8.9,1,0,0,.2.1.3.1-.1.1-.2.3-.3.4-.3.5-.4,1.1-.2,1.6.2.5.8.7,1.3.5.2,0,.4-.2.6-.3.3.5.7.9,1.4.7.5-.2.8-.7.8-1.3,0-.5-.3-.9-.6-1.3.2-.2.5-.3.7-.6.3-.4.4-.9.1-1.3ZM31.3,27.2c-.2,0-.3,0-.3-.1,0,0,0,0,0,0,.1,0,.2,0,.4,0,0,0,0,0,0,0ZM33.3,27.2c0,0,0,.2,0,.3,0,0,0,0,0,0,0,0,0-.1-.1-.2,0,0,0-.1,0-.1,0-.1,0-.2-.1-.3,0,0,0,0,0,0,0,0,0,0,0,0,0,0,0-.1,0-.2,0,0,0,0,0,0,.2.2.4.4.4.7ZM33.5,24.9c0,0,0-.2,0-.2,0,0,0,0,0-.1,0,0,.1,0,.2,0,0,0,0,0,0,0,0,0,0,0,0,0,0,.1,0,.2-.2.3Z" fill="#844faa" stroke-width="0"></path><path d="M39.4,18.6c0-.3-.3-.6-.6-.5-.5.2-1,.5-1.3.9-.2-.5-.5-.9-1-1.2-.2-.1-.6,0-.7.3,0,.6.1,1.2.6,1.6-.3,0-.5.3-.7.5-.2.2-.4.5-.6.7-.2.2-.3.5-.3.8,0,.3.3.6.6.7.3,0,.6,0,.8-.2.2-.1.4-.3.6-.4,0,.3,0,.5.2.8.2.6.9.9,1.5.5.6-.4.6-1.1.3-1.7,0,0-.1-.2-.2-.3.3-.1.7-.2,1-.3.3,0,.4-.4.2-.7-.2-.3-.5-.5-.8-.6.2-.3.3-.6.4-.9ZM37.7,20.5s0,0,0,0c0,0,0,0,0,0,0,0,0,0,0-.1,0,0,0,0,.1,0,0,0,0,0-.1.1ZM35.9,21.3s0,0,0-.1c.1-.1.2-.3.4-.4.1-.1.2-.2.4-.2,0,0,0,0,0,0-.2.2-.4.4-.6.6,0,0-.1,0-.2.1Z" fill="#844faa" stroke-width="0"></path><polygon points="41.9 28 41.9 28 41.9 28 41.9 28 41.9 28" fill="#844faa" stroke-width="0"></polygon><path d="M45.3,24.8c-.2,0-.4,0-.6.1,0-.2,0-.4,0-.6,0-.3-.5-.4-.7-.2-.3.3-.5.6-.7.9-.1-.2-.2-.3-.4-.5-.1-.4-.3-.7-.7-.8-.6-.2-1.2,0-1.3.6-.2.8.3,1.5,1,2.1-.3.1-.5.3-.7.5-.3.4-.4.9-.2,1.4.2.5.8.8,1.3.6.3-.1.5-.3.8-.6,0,0,.1-.1.2-.2,0,.1.2.2.3.3.5.3,1,.3,1.5,0,.4-.4.6-.9.3-1.4,0-.1-.1-.2-.3-.4.3-.3.6-.8.7-1.2,0-.3-.2-.6-.5-.5ZM41.7,24.8c0-.1,0-.2,0-.3,0,0,0,0,0,0,0,0,0,0,0,0,0,0,0,0,0,0,0,.1,0,.3,0,.4,0,0,0-.2-.1-.3ZM41.9,28h0s0,0,0,0c0,0,0,0,0,0,0,0,0,0,0,0,0,0,0,0,0-.1,0-.2,0-.4.2-.5.1,0,.2-.2.4-.2,0,0,0,0,0,0,0,.2.2.3.3.3-.2.1-.3.3-.5.4,0,0-.2.1-.3.1ZM44.4,27.7c-.1.1-.2.1-.3,0,0-.1,0-.2,0-.3,0,0,0,0,0-.1,0,0,0-.1,0-.2,0,0,0,0,.1,0,.3,0,.6.3.3.5Z" fill="#844faa" stroke-width="0"></path><path d="M41.9,28s0,0,0,0c0,0,0,0,0,0Z" fill="#844faa" stroke-width="0"></path><path d="M41.9,28s0,0,0,0c0,0,0,0,0,0,0,0,0,0,0,0Z" fill="#844faa" stroke-width="0"></path><path d="M50.3,21.1c-.7-.2-1.3.1-1.6.7-.3-.6-.8-1-1.3-1.4-.3-.2-.7.1-.7.4,0,.9.5,1.7,1.3,2,0,0,.1,0,.2,0,0,0,0,0,0,0,0,0,0,.1,0,.2-.1,0-.5,0-.6,0-.4,0-.8.2-1,.6-.4.6,0,1.5.7,1.5.3,0,.5-.1.7-.3,0,.2,0,.4,0,.7,0,.5.3,1,.9,1,.6,0,.9-.7,1-1.1,0-.3,0-.6,0-.9.2,0,.5.1.7,0,.5,0,.9-.5.9-1,0-.4-.3-.8-.7-1,0,0,0-.1.1-.2.4-.6.2-1.3-.4-1.5ZM50,21.9s0,0,0,0c0,.1-.2.2-.2.3-.2.2-.3.3-.5.5,0-.4.3-.9.7-.8ZM47.5,24.1c0,0,.1,0,.2,0-.1.1-.2.3-.4.3,0,0,0,0,0,0,0-.1,0-.1.2-.2ZM50.4,23.8c0,0-.4,0-.5,0-.2,0-.4,0-.5,0,.2-.1.5-.2.8-.2,0,0,.3.2.2.3Z" fill="#844faa" stroke-width="0"></path><path d="M44.5,18.5c0-.2,0-.5-.3-.6-.3,0-.6,0-.9,0,0,0,0,0,0-.1-.2-.3-.7-.2-.8.2,0,.1,0,.2,0,.4,0,0,0,0,0,0-.1-.1-.2-.4-.3-.5-.1-.2-.3-.3-.5-.3-.4,0-.9.2-.9.7,0,.4.3.7.6,1,.2.3.4.5.6.8-.3.1-.5.3-.7.6-.3.4-.7,1-.5,1.6.2.6.9.6,1.4.3.2-.1.5-.3.7-.5.3.6.8,1,1.4,1.2.2,0,.4,0,.5-.2.3-.7.2-1.5-.3-2,.2-.1.5-.2.7-.4.3-.3.6-.7.5-1.2,0-.5-.4-.8-.9-.8ZM43.3,21.2c.2.2.4.5.4.8-.2-.2-.4-.5-.4-.8ZM41.4,21.6c0-.1,0-.2.1-.3,0,0,0,.1,0,.2,0,0,0,0-.1,0Z" fill="#844faa" stroke-width="0"></path><path d="M35.7,20.1c0-.1,0-.2,0-.4,0-.5-.3-1-.8-1-.5,0-.9.4-1.1.8-.2-.3-.5-.7-.7-1-.1-.2-.4-.2-.6-.1-.6.3-.7,1-.6,1.5,0,.4.3.6.6.9-.5.3-1,.8-1.2,1.4-.1.3,0,.7.4.7.5,0,1-.2,1.5-.5.1.3.3.6.4.9.2.4.6.8,1.1.7.5-.1.7-.6.8-1,0-.4-.2-.7-.3-1,.3,0,.5-.2.8-.3.3-.1.6-.4.6-.8,0-.5-.4-.7-.9-.7ZM32.8,19.6c.1.2.2.3.3.5-.1-.1-.2-.2-.3-.4,0,0,0,0,0,0ZM34.8,19.6s0,0,0,0c0,0,0,0,0,0,0,.2-.2.3-.3.4,0-.2.2-.3.3-.4ZM34.3,20.9c.1,0,.3.2.4.1,0,0,.1,0,.2,0-.2,0-.3.1-.5.2,0,0-.1,0-.2.1,0-.1,0-.2,0-.3ZM34.6,22.9s0,0,0,0c-.2-.4-.4-.8-.5-1.2,0,0,.1,0,.2-.1,0,.3.3.6.4.9,0,0,0,.2,0,.3Z" fill="#9d6dc6" stroke-width="0"></path><path d="M42.8,16.6c0-.3-.2-.5-.4-.7-.4-.2-.8-.2-1.2,0,0,0-.2,0-.2.2,0,0,0-.1-.1-.2-.3-.4-.8-.6-1.3-.8-.3-.1-.6.2-.5.5,0,.6.4,1.2.9,1.4-.1,0-.3,0-.4.1-.2,0-.4.2-.5.3-.3.3-.6.7-.7,1.1,0,.3.3.6.6.5.4-.1.7-.3,1.1-.4,0,.4.1.8.3,1.2,0,.2.3.4.6.3.7-.3,1.1-1,1.1-1.7.6,0,1.2,0,1.3-.8.1-.4,0-.9-.4-1.1ZM41.6,17.5s0,0,.1,0c-.1,0-.3,0-.4-.1,0,0-.1,0-.2,0,0-.1.1-.3.2-.4,0,.2,0,.4.2.5ZM40.9,18.9c0-.2,0-.4,0-.7,0,.2,0,.4,0,.7ZM42.3,17.6s-.2,0-.3,0c0,0-.1,0-.2,0,.2,0,.4,0,.6,0,0,0,0,0,0,.1Z" fill="#9d6dc6" stroke-width="0"></path><path d="M37.4,16.9c-.1-.1-.2-.3-.4-.3-.2,0-.3-.1-.5,0-.2,0-.3,0-.5.1-.1,0-.3.2-.3.3,0,.1-.1.3-.1.5,0,.2,0,.3.1.4,0,.1.2.3.3.3,0,0,.2,0,.2,0,.1,0,.2,0,.4,0,0,0,0,0,.1,0,0,0,0,0,0,0,0,0,.1,0,.2,0,.1,0,.2,0,.3,0,0,0,.2,0,.2-.2,0,0,0-.2,0-.3,0-.3,0-.6-.3-.8Z" fill="#9d6dc6" stroke-width="0"></path><path d="M27.5,32c-.2-.3-.6-.4-.9-.4-.1,0-.3,0-.4,0,0,0,0-.1,0-.2,0-.3,0-.6,0-.9,0-.3,0-.7-.2-.9-.2-.3-.7-.5-1-.3-.3.2-.5.5-.6.8-.1.3-.2.6-.3.9-.1-.1-.2-.2-.4-.3-.5-.2-1-.1-1.4.3-.4.4-.3,1.1.2,1.4.3.2.6.3.9.4,0,0,0,0,.1,0-.4.5-.6,1.2-.4,1.8,0,.2.3.4.6.3.6-.2,1.3-.5,1.4-1.2,0,0,0,0,0,0,.4,0,.8-.2,1.1-.3.3-.1.7-.2.9-.4.3-.2.4-.6.2-1ZM25.2,30.8c0-.2,0-.3.2-.5,0,.6,0,1.3-.5,1.8,0-.4.2-.9.3-1.3ZM23.2,31.6s0,0,0,0c0,0,0,0,0,0,0,0,0,0,0,0,0,0,0,0,0,0,0,0,0,0,0,0,0,0,0,0,.1,0,.1,0,.2.2.3.3,0,0-.1,0-.2,0,0,0-.3-.1-.4-.2,0,0,0,0,0,0,0,0,0,0,0,0,0,0,0,0,0,0Z" fill="#9d6dc6" stroke-width="0"></path><path d="M56.9,22s0,0-.1,0c0-.4-.4-.6-.7-.4-.2.1-.3.2-.6.2,0,0,0,0,0,0,.2-.2,0-.7-.3-.7-.3,0-.6,0-.8.2,0,0-.1,0-.2,0l-.4-.5c-.1-.2-.3-.3-.5-.4-.5-.1-.8.3-.9.7,0,.6.3,1.2.8,1.6-.6.4-1,.9-1.3,1.5-.1.3,0,.6.4.7.6,0,1.1-.1,1.6-.4.2.7.8,1.3,1.6,1.4.2,0,.4,0,.5-.2.3-.4.4-1,.3-1.5.3,0,.5,0,.7-.2.4-.2.8-.7.8-1.2,0-.6-.5-.9-1-.9ZM55.5,24.7c0,0,0,.2,0,.2,0,0-.1,0-.2-.1,0,0,.2,0,.2-.1ZM53.3,23.8c.3-.3.6-.5,1-.6,0,0,0,0,0,0,0,0,0,0,0,0,0,0-.2,0-.2.1-.2.2-.5.4-.8.5ZM56.8,23.2c-.3.1-.6,0-.8,0,0,0,.2-.1.3-.2.1,0,.3-.1.4-.1.1,0,.3,0,.4,0,0,0,0,0,0,0,0,0,0,0,0,0,0,.1-.2.3-.3.3Z" fill="#9d6dc6" stroke-width="0"></path><path d="M55.6,27.9c-.2-.2-.5-.3-.8-.4,0,0,.1-.1.2-.2.2-.3.4-.7.2-1,0-.2-.3-.3-.4-.3,0,0-.1,0-.2,0,0,0,0,0,0,0-.1-.1-.2-.4-.4-.5-.6-.5-1.2,0-1.5.6-.5-.3-1.2-.2-1.5.4-.3.5-.1,1,.1,1.5-.5,0-.9.3-1.3.5-.3.2-.3.6,0,.8.5.3,1,.4,1.6.3,0,.3-.2.5-.2.8,0,.5.2,1,.7,1.3.5.3,1.1,0,1.5-.4.2-.3.3-.7.3-1.1,0,0,0,0,0,0,.2,0,.4,0,.6,0,.6,0,1.2-.2,1.6-.7.3-.5,0-1.2-.4-1.6ZM55.2,28.9c0,0,0,.1-.1.2,0-.2,0-.3-.1-.4-.2-.1-.3-.2-.5-.3.1,0,.3,0,.4,0,.2,0,.4.3.4.5Z" fill="#9d6dc6" stroke-width="0"></path><path d="M61.9,24.2c.1-.2.2-.3.3-.5.2-.3.2-.7,0-1-.2-.2-.6-.2-.9-.2-.4,0-.7.3-1,.5-.1-.3-.3-.5-.4-.8-.2-.4-.7-.5-1.1-.2-.5.5-.2,1.4.2,2-.8.5-1.3,1.2-1.4,2.1,0,.2,0,.5.4.5.4,0,.9,0,1.2-.3,0,.2,0,.4.1.5.2.5.6,1,1.1.9.6,0,.8-.7.8-1.2,0-.2,0-.5-.2-.7.3.1.6.2.9,0,.5-.1.9-.6.9-1.1,0-.5-.4-.8-.9-.8ZM61.2,23.6s0,0,0,0c-.2.3-.5.5-.8.7.2-.3.4-.6.7-.7ZM58.7,25.7c0-.2.2-.3.3-.5,0,.2-.2.3-.3.5ZM60.3,26.9s0,0,0,0c0,0,0,0,0,0,0-.1-.1-.2-.2-.3,0,0,0,0,0,0,0,0,0,0,.1-.1,0,0,0,.1,0,.2,0,0,0,.1,0,.2ZM61.9,25.1s0,0,0,0c0,0-.1.1-.2.1,0,0,0,0-.1,0,0,0,0-.1,0-.2,0,0,0,0,0,0,0,0,.1,0,.2,0,0,0,0,0,0,0,0,0,0,0,0,0,0,0,0,0,0,0,0,0,0,0,0,0Z" fill="#8559b2" stroke-width="0"></path><polygon points="61.9 25.1 61.9 25.1 61.9 25.1 61.9 25.1 61.9 25.1" fill="#8559b2" stroke-width="0"></polygon><polygon points="58.6 30.9 58.6 30.9 58.6 30.9 58.6 30.9" fill="#8559b2" stroke-width="0"></polygon><polygon points="58.6 30.9 58.6 30.9 58.6 30.9 58.6 30.9 58.6 30.9 58.6 30.9" fill="#8559b2" stroke-width="0"></polygon><path d="M59.2,30.2c-.3-.3-.8-.3-1.2,0-.3.2-.6.5-.7.8-.3,0-.6,0-.8.1-.3,0-.6.4-.4.7.2.3.6.5,1,.6,0,0,0,.1,0,.2,0,.3.4.6.7.7.3,0,.6,0,.9-.2.1,0,.2-.2.4-.3,0,0,0,0,0,0,0,0,0,0,0,0,0,0,0,0,0,0,0,0,0,0,0,0,.3,0,.5-.3.4-.6,0-.2-.2-.3-.3-.5,0,0,0-.2.1-.3.1-.4,0-.8-.3-1.1ZM58.1,32.2s0,0,0,0c0,0,0,0-.1,0,0,0,0,0,0,0,0,0,0,0,0,0,0,0,0,0,0,0,0,0,0,0,0,0,0,0,0-.1,0-.2,0-.2,0-.4,0-.5,0,0,.1-.1.1-.2,0,0,0,0,0,0,0,0,0,0,0,0,0,0,0,0,0,0,0,0,0,0,.1-.1,0,0,0,0,0,0,0,0,0,0,0,0,0,0,0,0,0,0,0,0,0,0,0,0s0,0,0,0c0,0,0,0,0,0,0,0,0,0,0,0,0,0,0,0,0,0h0s0,0,0,0c0,0,0,0,0,0,0,0,0,0,0,0,0,0,0,0,0,0,0,0,0,0,0,0,0,0,0,0,0,0,0,0,0,0,0,0,0,0,0,0,0,0,0,0,0,0,0,0h0s0,0,0,0c0,0,0,0,0,0,0,0,0,0,0,0,0,0,0,0,0,0,0,0,0,0,0,0,0,0,0,0,0,0,0,0,0,0,0,0,0,0,0,0,0,0,0,0,0,0,0,0,0,0,0,0,0,0,0,0,0,0,0,0,0,0,0,0,0,0,0,0,0,0,0,0,0,0,0,0,0,0,0,0,0,0,0,0,0,0,0,0,0,0,0,0,0,0,0,0-.4,0-.6.7-.2.9,0,0,0,0,0,0,0,0,0,0,0,0,0,0-.2.1-.3.2Z" fill="#8559b2" stroke-width="0"></path><path d="M58.6,30.9s0,0,0,0c0,0,0,0,0,0,0,0,0,0,0,0Z" fill="#8559b2" stroke-width="0"></path><path d="M58.6,30.9s0,0,0,0c0,0,0,0,0,0,0,0,0,0,0,0Z" fill="#8559b2" stroke-width="0"></path><path d="M58.6,30.9s0,0,0,0c0,0,0,0,0,0,0,0,0,0,0,0Z" fill="#8559b2" stroke-width="0"></path><polygon points="58.6 30.9 58.6 30.9 58.6 30.9 58.6 30.9" fill="#8559b2" stroke-width="0"></polygon><polygon points="58.6 30.9 58.6 30.9 58.6 30.9 58.6 30.9 58.6 30.9" fill="#8559b2" stroke-width="0"></polygon><path d="M66.8,27.5c-.2-.5-.7-.7-1.2-.7h0c0-.3-.3-.6-.6-.5-.3.1-.6.3-.8.5,0,0,0,0,0,0,0-.2-.3-.3-.5-.3-.4,0-.7.3-.7.7,0,0,0,0,0,0-.2,0-.3-.1-.5-.1-.4,0-.8.4-.7.8,0,.5.5.9,1,1.1-.2.3-.3.6-.4.9,0,.1,0,.2,0,.3,0,0,0,0,0,0,0,.1,0,.3,0,.4,0,.3,0,.5.3.7.4.6,1.1.3,1.4-.2.2-.3.4-.6.5-.9.2.2.5.3.8.3.5,0,1-.1,1.4-.5.3-.4.4-1,0-1.4,0,0,0,0,0,0,.3-.3.4-.7.2-1.2ZM64.8,27.6s0,0,0,.1c0,0-.1,0-.2,0,0,0,0,0-.1,0,0,0,0,0,0,0,0-.1.2-.2.3-.3,0,0,0,0,0,0ZM65.9,28.1c0,0,0-.1-.2-.1,0,0,0,0,0,0,0,0,0,0,0,0,0,0,0,0,0,0,0,0,0,0,0,0,0,0,0,0,0,0,0,0,0,0,0,0,0,0,0,0,0,0,0,0,0,0,0,0,0,0,.1,0,.1,0,0,0,0,0,0,0,0,0,0,0,0,0,0,0,0,.2,0,.2ZM65.9,29.4c0,0,0,.1-.1.2,0,0,0-.2,0-.3,0,0,0,0,0,0,0,0,0,0,0,0,0,0,0,.1,0,.2Z" fill="#8559b2" stroke-width="0"></path><path d="M15.3,43c-.5.2-.3,1.1.3.9.5-.2.3-1.1-.3-.9Z" fill="#8559b2" stroke-width="0"></path><path d="M15.2,41.6c-.5.2-.3,1.1.3.9.5-.2.3-1.1-.3-.9Z" fill="#8559b2" stroke-width="0"></path><path d="M60.6,19.3c-.5-.3-1.2,0-1.6.4-.4-.6-1-1.1-1.7-1.4-.3,0-.6,0-.7.3-.2.8,0,1.7.7,2.4-.2.1-.4.3-.6.5-.2.4-.2.9,0,1.2.2.2.6.3.9.3,0,.5.2,1,.7,1.1.4,0,.8-.3,1-.6.1-.2.2-.5.3-.8.2,0,.3,0,.5,0,.4,0,.7-.4.7-.8,0-.4-.2-.7-.5-.9,0,0,0,0-.1,0,.4-.3.6-.7.7-1.1,0-.3-.2-.5-.4-.5ZM58,19.9c0,0-.1.1-.2.2-.1-.2-.2-.4-.3-.7.2.1.3.3.4.4,0,0,0,0,0,0ZM58.1,21.6c0,.2-.2.3-.4.4,0,0,0,0-.1,0,0,0,0,0,0,0,0-.1.1-.2.2-.3,0,0,.2-.1.3-.2ZM58.9,22.1c0,.2,0,.4,0,.7,0,0,0,.1,0,.2,0,0,0-.1,0-.2,0-.2,0-.5.2-.7,0-.2,0-.3,0-.4,0,0,0,0,0,0,0,0,0,.1.1.2,0,0-.2.2-.1.4Z" fill="#b999e0" stroke-width="0"></path><path d="M67.6,21.6c-.5-.3-1.1-.1-1.6.1-.1,0-.2.1-.3.2,0-.1,0-.2,0-.4-.1-.6-.6-1.2-1.2-1.4-.3,0-.6.3-.5.6.1.4.3.8.5,1.2,0,0,0,0,0,0-.5-.1-1-.1-1.5,0-.3,0-.4.5-.2.7.2.3.6.6.9.7,0,0-.1.1-.2.2-.2.3-.4.6-.5.9,0,.4.2.8.6.8.4,0,.7-.1,1-.3,0,0,0,0,.1,0,0,0,0,.1,0,.2,0,.5,0,.9.4,1.2.5.3,1,0,1.3-.4,0-.1.1-.3.2-.4,0,0,.1-.2.1-.2,0,0,0,0,0,0,.1,0,.3,0,.5.1.3,0,.6,0,.9-.1.2-.2.3-.5.3-.7,0-.5-.4-.9-.8-1.1.1-.1.3-.2.4-.4.4-.5.3-1.2-.3-1.5ZM67,24.4c0,0,0-.1,0-.2.1,0,.2.1.3.2-.1,0-.3,0-.3,0ZM67,22.7c0-.1,0-.2-.1-.3,0,0,0,0,0,0,.1,0,.3,0,.4,0,.2,0,0,.3-.1.4Z" fill="#b999e0" stroke-width="0"></path><path d="M53.6,27.6c0,0-.2-.2-.3-.2,0,0,0,0-.1,0,0,0-.2,0-.2,0-.2,0-.3.2-.4.3-.1.1-.2.3-.3.4,0,0,0,0,0,.1,0,0,0,.1,0,.2,0,0,0,.2.1.3.1,0,.2.1.3.2,0,0,.2,0,.2,0,0,0,.2,0,.2,0,0,0,.2,0,.2-.1,0,0,0,0,.1-.1,0,0,0-.1,0-.2,0,0,0-.2,0-.3,0,0,0,0,0,0,0,0,0-.1,0-.2,0-.1,0-.3,0-.3Z" fill="#614589" stroke-width="0"></path><path d="M61.1,23.9c0,0-.2-.1-.3-.1-.1,0-.2,0-.3.1,0,0,0,0,0,0,0,0,0,0-.1,0,0,0,0,0,0,0,0,0-.1,0-.2,0-.1,0-.2.2-.3.3,0,0,0,0,0,0,0,0,0,.1,0,.2,0,0,0,.1,0,.2,0,0,0,.1,0,.2,0,0,0,0,0,0,0,0,0,0,0,0,0,.1.2.3.3.3.2,0,.4,0,.6-.2,0,0,.1-.1.2-.2,0,0,0,0,0,0,0,0,0-.1,0-.2,0,0,0,0,0-.1,0,0,0,0,0-.1,0,0,.1-.2.1-.3,0-.1,0-.2-.2-.3Z" fill="#614589" stroke-width="0"></path><path d="M65.1,22.8c0,0,0-.2-.1-.2,0,0,0,0-.1-.1,0,0-.1,0-.2,0h-.1c0,0-.2,0-.2,0,0,0-.1,0-.2.1,0,0,0,0,0,0,0,0-.1.2-.2.2,0,0,0,.2,0,.3,0,0,0,.1,0,.2,0,0,0,.1,0,.2,0,0,0,.1,0,.1,0,0,0,0,.1.1,0,0,.1,0,.2,0,0,0,.1,0,.2,0,0,0,.1,0,.2,0,.1,0,.2,0,.4,0,.1,0,.2-.2.2-.4,0-.1,0-.3,0-.4,0,0,0,0,0-.1Z" fill="#614589" stroke-width="0"></path><path d="M23.8,39.9c-.5.2-.3,1.1.3.9.5-.2.3-1.1-.3-.9Z" fill="#614589" stroke-width="0"></path><path d="M26.1,34.8c-.5.2-.3,1.1.3.9.6-.2.3-1.1-.3-.9Z" fill="#614589" stroke-width="0"></path><path d="M25.1,31.9c-.5.2-.3,1.1.3.9.5-.2.3-1.1-.3-.9Z" fill="#614589" stroke-width="0"></path><path d="M31,34c-.5.2-.3,1.1.3.9.5-.2.3-1.1-.3-.9Z" fill="#614589" stroke-width="0"></path><path d="M32.6,25.2c-.5.2-.3,1.1.3.9.5-.2.3-1.1-.3-.9Z" fill="#614589" stroke-width="0"></path><path d="M33.5,20.5c-.5.2-.3,1.1.3.9.5-.2.3-1.1-.3-.9Z" fill="#614589" stroke-width="0"></path><path d="M37.1,25.9c-.5.2-.3,1.1.3.9.5-.2.3-1.1-.3-.9Z" fill="#614589" stroke-width="0"></path><path d="M37.2,19c-.5.2-.3,1.1.3.9.5-.2.3-1.1-.3-.9Z" fill="#614589" stroke-width="0"></path><path d="M42.2,19.1c-.6.2-.3,1.1.3.9.5-.2.3-1.1-.3-.9Z" fill="#614589" stroke-width="0"></path><path d="M41,25.1c-.6.2-.3,1.1.3.9.5-.2.3-1.1-.3-.9Z" fill="#614589" stroke-width="0"></path><path d="M54.5,22.4c-.5.2-.3,1.1.3.9.6-.2.3-1.1-.3-.9Z" fill="#614589" stroke-width="0"></path><path d="M58.7,20.8c-.5.2-.3,1.1.3.9.6-.2.3-1.1-.3-.9Z" fill="#614589" stroke-width="0"></path><path d="M29.8,53.3s.1-2.9,1.7-4.6c1.6-1.7,3.7-2.1,3.7-2.1,0,0-.6,3.7-1.5,4.7s-4,1.5-4,2Z" fill="#395051" stroke-width="0"></path><path d="M29.8,53.7h0c-.2,0-.3-.2-.3-.3,0,0,0,0,0,0,0-.4.2-3.1,1.8-4.8,1.7-1.7,3.8-2.2,3.9-2.2.1,0,.2,0,.3,0,0,0,.1.2.1.3,0,.4-.6,3.9-1.6,4.9-.3.3-1,.6-2.1,1-.6.3-1.6.6-1.8.8,0,.1-.2.3-.3.3ZM34.8,47.1c-.7.2-2,.8-3,1.9-1,1-1.4,2.6-1.6,3.6.3-.2.8-.4,1.4-.6.7-.3,1.6-.7,1.9-.9.6-.6,1.1-2.7,1.3-4Z" fill="#000" stroke-width="0"></path><path d="M33.3,49.8c-.1,0-.3,0-.4,0,0,0,0-.1,0-.1.1-.2,0-.4-.1-.5-.2-.1-.4,0-.5.1-.2.3-.7,1.1-1,1.3-.4.3-1.5,1.9-1.7,2.2-.1.2,0,.4,0,.5,0,0,.1,0,.2,0,.1,0,.2,0,.3-.2.5-.7,1.2-1.7,1.5-2,.2,0,1.4-.5,1.7-1,0-.2,0-.4-.1-.5Z" fill="#000" stroke-width="0"></path><path d="M27.7,54s-3-1.3-4,.6-.9,4.8-.9,4.8c0,0,1.9-2.6,3.1-3.2s1.8-2.2,1.8-2.2Z" fill="#395051" stroke-width="0"></path><path d="M22.8,59.7s0,0-.1,0c-.1,0-.2-.2-.2-.3,0-.1-.1-3.1.9-5,1.2-2.1,4.3-.8,4.5-.7.2,0,.3.3.2.4,0,0-.6,1.7-2,2.4-1.2.6-3,3.1-3,3.1,0,0-.2.1-.3.1ZM25.6,53.9c-.6,0-1.3.2-1.6.8-.6,1.1-.8,2.6-.8,3.6.7-.8,1.7-2,2.6-2.5.8-.4,1.3-1.2,1.5-1.7-.4-.1-1-.3-1.6-.3Z" fill="#000" stroke-width="0"></path><path d="M24.6,55.8c-.1,0-.2,0-.3-.2-.1-.2,0-.4,0-.5,0,0,1.8-1.2,3.1-1.5.2,0,.4,0,.4.3,0,.2,0,.4-.3.4-1.2.3-2.9,1.4-2.9,1.4,0,0-.1,0-.2,0Z" fill="#000" stroke-width="0"></path><path d="M44.2,74.7s-3.6-5.7-7.9-6-7.9,2.2-8.8,4.9c0,0,1.3-1.5,5.5.6,4.2,2.1,7.3,2.4,8.4,1.6s2.8-1.1,2.8-1.1Z" fill="#395051" stroke-width="0"></path><path d="M44.2,74.7s-3.6-5.7-7.9-6-7.9,2.2-8.8,4.9c0,0,1.3-1.5,5.5.6,4.2,2.1,7.3,2.4,8.4,1.6s2.8-1.1,2.8-1.1Z" fill="#395051" stroke-width="0"></path><path d="M39.6,76.5c-1.6,0-3.9-.6-6.8-2-3.8-1.9-5.1-.7-5.1-.7-.1.1-.3.1-.4,0-.1,0-.2-.2-.2-.4.9-2.8,4.6-5.5,9.1-5.1,4.5.3,8,5.9,8.2,6.1,0,0,0,.2,0,.3,0,.1-.1.2-.3.2,0,0-1.7.3-2.7,1-.4.3-1.1.5-1.9.5ZM29.2,72.7c.9,0,2.2.3,4,1.2,3.9,2,7,2.3,8,1.6.8-.6,1.8-.9,2.4-1-.9-1.3-3.9-5.2-7.4-5.4-3.8-.3-6.8,1.6-8,3.8.3,0,.6-.1,1-.1Z" fill="#000" stroke-width="0"></path><path d="M44.5,74.5c0-.1-.5-1.2-2.7-1.6-.4,0-.9-.3-1.5-.5,0,0,0,0,0,0,0,0,0,0,0,0-.5-.2-1-.5-1.5-.7,0,0,0,0,0,0-.3-.2-.7-.4-1.1-.6-1.3-.7-2.3-1.3-2.3-1.4-.2-.1-.4,0-.5.1s0,.4.1.5c0,0,.2.2.6.3-.5,0-.9,0-.9,0-.2,0-.3.2-.3.4s.2.3.4.3c0,0,1.4-.1,2.7.3.4.2.9.5,1.3.7-.4.2-.6.4-.6.4-.1.1-.1.4,0,.5,0,0,.2,0,.2,0s.2,0,.3-.1c0,0,.5-.5,1.5-.2.6.3,1.2.5,1.7.6,1.8.3,2.2,1.1,2.2,1.1,0,.1.2.2.3.2s0,0,.1,0c.2,0,.3-.3.2-.5Z" fill="#000" stroke-width="0"></path><path d="M51.2,44.8s-2.9-.7-3.6-4.9.6-6.3.6-6.3c0,0-.2,2.3,1.7,4s1.2,7.2,1.2,7.2Z" fill="#395051" stroke-width="0"></path><path d="M51.2,45.2s0,0,0,0c-.1,0-3.1-.8-3.8-5.2-.7-4.3.6-6.5.6-6.6,0-.1.3-.2.4-.2.2,0,.3.2.2.4,0,0-.1,2.2,1.6,3.8,2,1.8,1.4,7.3,1.3,7.5,0,0,0,.2-.1.2,0,0-.1,0-.2,0ZM48,35.1c-.2,1-.4,2.6,0,4.7.5,3.1,2.1,4.2,2.9,4.5.1-1.3.3-5.2-1.2-6.5-1-.9-1.5-1.9-1.7-2.8Z" fill="#000" stroke-width="0"></path><path d="M51.3,44.5c0,0-.7-2.3-1-3-.2-.4-.8-2-1.1-2.8,0-.2-.3-.3-.5-.2-.2,0-.3.3-.2.5,0,0,.3.8.6,1.5-.2-.1-.3-.2-.3-.2-.2,0-.4,0-.5.1,0,.2,0,.4.1.5.3.2,1.1.7,1.3,1,.3.5.8,2.2.9,2.8,0,.2.2.3.3.3s0,0,0,0c.2,0,.3-.2.2-.4Z" fill="#000" stroke-width="0"></path></g></g></g></svg>