<svg xmlns="http://www.w3.org/2000/svg" id="uuid-9bdda735-a695-4d7b-a6ae-90026f33a2cd" viewBox="0 0 86 86"><g id="uuid-b59bd384-9157-4408-9459-59e22daaf549"><circle cx="43" cy="43" r="42.5" fill="#dfded3" stroke="#000" stroke-miterlimit="10"></circle><path d="M32.5,51.8c13.5-17.9,9.8-19.9,1.4-41.1-9.9,18.2-6.4,28.3-1.4,41.1Z" fill="#6b7b31" fill-rule="evenodd" stroke-width="0"></path><path d="M30.4,65.6c.8-3.4,3.5-14.3,13.9-20.2,11.6-6.6,21.5,1.4,30.2,4-10.4,4.6-17.5,11.7-31.2,11.5-5.4,0-10.9,3.4-12.9,4.7Z" fill="#6b7b31" fill-rule="evenodd" stroke-width="0"></path><path d="M34,50.7h0s0,0,0,0h0ZM34.5,47c-1.5,3-2.2,5.7-2.8,8.3h0c0,0,0,0,0,.1-.2.7-.3,1.5-.5,2.2-.3,1.3-.5,2.6-.9,4,0,.2,0,.4.3.5.2,0,.4,0,.5-.3.3-1.4.6-2.7.9-4,.2-.7.3-1.5.5-2.2,1.1-2.9,2.5-5.3,4.4-7.6,1.9-2.2,4.3-4.2,7.3-6.2,1.1-.7,2.1-1.4,3.1-2.1,2-.9,4.2-1.7,6.5-2.2,8.1-1.8,12.4-9.4,12.4-9.4,0,0-4.6,3.6-9,3.6-4.5,0-9.3,5.7-11.1,7.3-1.4,1.3-1.9,1.7-2,1.8-.1,0-.3.2-.4.3-3.1,2-5.5,4.1-7.5,6.4-.8.9-1.5,1.9-2.1,2.9,0,0-.1.1-.2.2.3-.7.6-1.3.9-1.9,3.5-6,7.9-8.1,13.2-13.9,7.8-8.6,9.6-19.8,9.6-19.8,0,0-.3,5.7-11.9,14.2-7.5,5.5-9.6,10.8-11.5,17.8Z" fill="#37522a" fill-rule="evenodd" stroke-width="0"></path><path d="M30.4,65.6c.8-3.4,3.5-14.3,13.9-20.2,11.6-6.6,21.5,1.4,30.2,4-10.4,4.6-17.5,11.7-31.2,11.5-5.4,0-10.9,3.4-12.9,4.7Z" fill="#7b594e" fill-rule="evenodd" stroke-width="0"></path><path d="M30.4,66c0,0-.2,0-.3,0-.1-.1-.2-.3-.2-.5,2.8-11.9,9.2-17.7,14.2-20.5,9-5.1,17-1.6,24,1.4,2.3,1,4.4,1.9,6.5,2.5.2,0,.3.2.3.4,0,.2,0,.4-.3.4-2.9,1.3-5.5,2.8-8.1,4.2-6.8,3.8-13.3,7.5-23.4,7.3-5.1,0-10.2,3.1-12.4,4.5l-.3.2c0,0-.2,0-.2,0ZM53.6,43.3c-2.9,0-6,.7-9.1,2.5-4.6,2.6-10.6,8-13.5,18.9,2.5-1.5,7.4-4.2,12.2-4.2,9.8.1,16.2-3.4,22.9-7.2,2.3-1.3,4.6-2.6,7.1-3.8-1.8-.6-3.6-1.4-5.5-2.2-4.4-1.9-9.1-3.9-14.1-3.9Z" fill="#000" stroke-width="0"></path><path d="M32.5,51.8c13.5-17.9,9.8-19.9,1.4-41.1-9.9,18.2-6.4,28.3-1.4,41.1Z" fill="#7b594e" fill-rule="evenodd" stroke-width="0"></path><path d="M32.5,52.2s0,0,0,0c-.2,0-.3-.1-.4-.3-4.8-12.1-8.9-22.6,1.4-41.5,0-.2.2-.2.4-.2.2,0,.3.1.4.3,1,2.6,2,4.9,2.8,6.9,6.3,15.1,7.8,18.7-4.3,34.7,0,.1-.2.2-.4.2ZM33.9,11.7c-9.3,17.6-5.7,27.7-1.2,39.2,11.2-15,9.9-18.3,3.7-33.1-.7-1.8-1.6-3.8-2.5-6Z" fill="#000" stroke-width="0"></path><path d="M34,50.7h0s0,0,0,0h0ZM34.9,48.6c3.5-6,7.9-8.1,13.2-13.9,7.8-8.6,9.6-19.8,9.6-19.8,0,0-.3,5.7-11.9,14.2-7.5,5.5-9.6,10.8-11.5,17.8l-.6,3.3,1-1.6Z" fill="#5c4f4f" fill-rule="evenodd" stroke-width="0"></path><path d="M34,51.1c-.2,0-.4-.2-.4-.4s0-.2,0-.2c0,0,0-.2,0-.3l.6-3.3c1.7-6.5,3.7-12.3,11.6-18.1,9-6.6,11.1-11.5,11.5-13.2,0-.4.1-.7.1-.7,0-.2.3-.4.5-.4.2,0,.4.2.4.5,0,0,0,.4-.2,1-.6,2.9-3.1,11.9-9.6,19.1-2.1,2.3-4,3.9-5.8,5.5-2.8,2.5-5.3,4.7-7.4,8.3,0,0,0,0,0,0l-1,1.6c0,0,0,.1,0,.2h0c0,.2-.2.4-.4.4ZM34.9,48.6h0,0ZM56,20c-1.7,2.4-4.6,5.7-9.8,9.4-7,5.2-9.3,10-11.3,17.6l-.2.9c2.1-3.5,4.6-5.7,7.4-8.1,1.8-1.6,3.7-3.2,5.7-5.5,4.3-4.8,6.8-10.4,8.1-14.3Z" fill="#000" stroke-width="0"></path><path d="M34,50.7h0s0,0,0,0h0ZM47.3,39.7c2-.9,4.2-1.7,6.5-2.2,8.1-1.8,12.4-9.4,12.4-9.4,0,0-4.6,3.6-9,3.6-4.5,0-9.3,5.7-11.1,7.3l-3.5,3.2,4.7-2.5Z" fill="#5c4f4f" fill-rule="evenodd" stroke-width="0"></path><path d="M34,51.1c-.2,0-.4-.2-.4-.4s.2-.4.4-.4.4.2.4.4h0c0,.2-.2.4-.4.4ZM42.7,42.7c-.1,0-.3,0-.4-.2-.1-.2-.1-.4,0-.6l3.5-3.2c.3-.3.7-.7,1.1-1.1,2.4-2.3,6.3-6.3,10.2-6.3,0,0,0,0,.1,0,4.2,0,8.7-3.5,8.7-3.5.2-.1.4-.1.6,0,.2.1.2.4,0,.6-.2.3-4.6,7.8-12.7,9.6-2.3.5-4.4,1.2-6.4,2.2l-4.7,2.5c0,0-.1,0-.2,0ZM57.2,32.2c-3.5,0-7.4,3.9-9.5,6-.5.5-.9.9-1.2,1.1l-.9.8,1.5-.8s0,0,0,0c2.1-1,4.2-1.7,6.6-2.2,5.2-1.2,8.9-4.9,10.8-7.2-1.8,1.1-4.5,2.3-7.2,2.3,0,0,0,0,0,0Z" fill="#000" stroke-width="0"></path><path d="M32.3,49.5c0-.2.2-.4.4-.3.2,0,.4.2.4.4,0,3.6-1,9.1-2.7,14.8-1.4,4.7-1.5,6-4,10.3-.1.2-.3.2-.6.1-.2,0-.3-.3-.2-.5,2.4-4.2,2.6-5.5,4-10.2,1.7-5.7,2.6-11,2.7-14.6Z" fill="#000" fill-rule="evenodd" stroke-width="0"></path><path d="M66.7,49.1c.2,0,.4.2.3.5,0,.2-.3.4-.5.3-4.7-.8-8.2-.9-11.3-.5-3.1.4-5.7,1.2-8.6,2.3-4.2,1.7-8.1,4.5-11.3,7.8-2.4,2.6-3.6,3.8-5,6.5s-1.4,2.5-1.8,3.6c0,.2-.8,2-1,1.9-.2,0,.4-1.1.4-1.3.4-1.1.1-1.3.6-2.4,1.5-3.2,3.6-6.2,6.2-8.9,3.3-3.5,7.3-6.3,11.6-8,2.9-1.2,5.6-2,8.8-2.4,3.2-.4,6.8-.2,11.6.5Z" fill="#000" fill-rule="evenodd" stroke-width="0"></path><path d="M34,50.7h0s0,0,0,0h0ZM44.2,40.8c-.1,0-.3.2-.4.3-3.1,2-5.5,4.1-7.5,6.4-.8.9-1.5,1.9-2.1,2.9,0,0-.1.1-.2.2.3-.7-1.7,2.1-2.3,4.8h0c0,0,0,0,0,.1-.2.7-.3,1.5-.5,2.2-.3,1.3-.5,2.6-.9,4,0,.2,0,.4.3.5.2,0,.4,0,.5-.3.3-1.4.6-2.7.9-4,.2-.7.3-1.5.5-2.2,1.1-2.9,2.5-5.3,4.4-7.6,1.9-2.2,4.3-4.2,7.3-6.2" fill="#000" fill-rule="evenodd" stroke-width="0"></path><path d="M33.2,13.9c0-.2.2-.4.4-.4.2,0,.4.2.4.4,0,2.6,0,5.6.2,8.8.3,8.1.6,17.6-1.2,27.6,0,.2-.3.4-.5.3-.2,0-.4-.3-.3-.5,1.7-9.9,1.4-19.4,1.2-27.4-.1-3.2-.2-6.2-.2-8.9Z" fill="#000" fill-rule="evenodd" stroke-width="0"></path></g></svg>