<svg xmlns="http://www.w3.org/2000/svg" id="uuid-13d48d67-c05e-4f8a-be98-792b22746bde" viewBox="0 0 86 86"><g id="uuid-d65f5ed1-98b7-45c1-a751-9c6cbda6139b"><circle cx="43" cy="43" r="42.5" fill="#dfded3" stroke="#000" stroke-miterlimit="10"></circle><path d="M71,42.3c.3-.7.2-1.3-.1-1.9-.3-.6-.9-1.1-1.7-1.5-1.8-1-5-1.6-9.1-1.3.7-.4,1.3-.8,1.9-1.2,1.4-1,2.7-2.1,3.8-3.4.9-1.1,1.4-2.2,1.5-3,0-.6,0-1.2-.4-1.7-.3-.4-.8-.8-1.5-1-.8-.2-1.9-.2-3.1,0h0c.8-1.7.9-3,.5-3.9-.2-.7-.7-1.1-1.4-1.3-.6-.2-1.4-.2-2.3,0-2,.5-4.7,2.2-7.5,5.3.2-.7.4-1.5.6-2.2.4-1.7.5-3.4.4-5.1,0-1.5-.4-2.5-.9-3.2-.4-.5-.9-.9-1.4-1-.5,0-1.1,0-1.7.3-.8.4-1.5,1.1-2.3,2.1h0c-.6-1.9-1.5-3-2.5-3.4-.3,0-.6-.1-.9-.1-.4,0-.8.2-1.2.5-.6.4-1.2,1.1-1.7,2.1-1.4,2.8-2,7.8-.7,14.6-.6-1.3-1.3-2.8-2.1-4.2-1.5-2.6-3.5-5.1-5.9-6.8-1.2-.9-2.2-1.3-3.1-1.3-.7,0-1.2.2-1.7.5-.4.4-.7.9-.8,1.5-.2.8-.1,1.9.2,3.1h0c-1.7-.7-3-.7-3.9-.3-.6.3-1,.8-1.2,1.5-.2.6-.1,1.4.2,2.3.6,2,2.5,4.5,5.8,7.1-.7-.2-1.5-.3-2.2-.4-1.7-.2-3.4-.3-5.1-.1-1.5.2-2.5.6-3.2,1.2-.5.4-.8.9-.9,1.5,0,.5,0,1.1.4,1.7.4.7,1.2,1.5,2.3,2.1h0c-1.7.7-2.7,1.6-3.1,2.5-.3.6-.2,1.3.1,1.9.3.6.9,1.1,1.7,1.5,1.8,1,5,1.6,9.1,1.2-.7.4-1.3.8-1.9,1.2-1.4,1-2.7,2.1-3.8,3.4-.9,1.1-1.4,2.2-1.5,3,0,.7,0,1.2.4,1.7.3.4.8.8,1.5,1,.8.2,1.9.2,3.1,0h0c-.8,1.7-.9,3-.6,3.9.3.7.8,1.1,1.4,1.3.6.2,1.4.2,2.3,0,2-.5,4.7-2.2,7.5-5.3-.2.7-.4,1.5-.6,2.2-.4,1.7-.5,3.4-.4,5.1,0,1.5.4,2.5.9,3.2.4.5.9.8,1.4,1,.5,0,1.1,0,1.7-.3.8-.4,1.5-1.1,2.3-2.1h0c.6,1.9,1.5,3,2.5,3.4.3,0,.6.1.9.1.4,0,.8-.2,1.2-.5.6-.4,1.2-1.1,1.7-2.1,1.4-2.8,2-7.8.7-14.5.7,1.6,1.6,3.4,2.6,5.1,1.4,2.2,3.2,4.4,5.4,5.9,1.2.9,2.2,1.3,3.1,1.3.7,0,1.2-.1,1.7-.5.4-.4.7-.9.8-1.5.2-.8.1-1.9-.2-3.1h0c1.7.7,3,.7,3.9.3.6-.3,1-.8,1.2-1.5.2-.6.1-1.4-.2-2.3-.6-2-2.5-4.5-5.8-7.1.7.2,1.5.3,2.2.4,1.7.2,3.4.3,5.1,0,1.5-.2,2.5-.6,3.2-1.2.5-.4.8-.9.8-1.5,0-.6,0-1.1-.4-1.7-.4-.7-1.2-1.5-2.3-2.1h0c1.7-.7,2.7-1.6,3.1-2.5ZM66.5,50.7c-3.3.4-6.7-.2-9.8-1.3h0c-2.1-.7-4.1-1.6-5.7-2.4,2.4,2.9,6.8,6.3,4.1,5.6-.5-.1-1-.3-1.5-.6t0,0c-.9-.4-1.8-1-2.7-1.5-1.1-.7-2.2-1.3-3.4-1.6,1.2,1.9,3.3,4.8,5.9,7.2,1.7,1.6,3.7,3.1,5.8,4.2,1.7,4.7-.4,7.2-4.4,4.3-5.2-3.7-8.1-11-9.3-14.8,0,.2,0,.4-.2.6,0,0,0,.1,0,.2-1.3,3.4-1.7,11-2.9,8.2,0,0,0,0,0,0-.7-1.5-.6-3.4-.7-5.2,0-1.1-.2-2.1-.6-3-.6,1.8-1.2,4.2-1.6,6.9-.4,2.9-.5,6.1.3,9-2.6,4.3-5.8,4.3-6.1-.7-.2-3.3.7-6.7,1.9-9.7.8-1.9,1.7-3.6,2.5-5-3.2,2.3-7,6.2-6.2,3.7.1-.4.4-.9.6-1.3,0,0,0,0,0,0,.7-1.2,1.7-2.4,2.6-3.6.7-.9,1.3-1.9,1.6-2.9,0,0,0,0,0,0-1.8,1-4.2,2.5-6.6,4.5-2.1,1.8-4.2,4-5.6,6.4-4.8,1.4-7.1-.8-4-4.6,2.1-2.5,5.1-4.4,8-5.7,2.3-1.1,4.7-1.8,6.5-2.3-3.7-.7-10.3,0-7.7-1.5.1,0,.3-.1.4-.2,1.4-.7,3.1-.9,4.7-1.3.8-.2,1.5-.4,2.2-.8-1.9-.4-4.4-.9-7.1-1-2.8-.1-5.7,0-8.3.9-4.4-2.3-4.6-5.5.2-6.1,3.2-.4,6.7.2,9.7,1.3h0c2.3.8,4.5,1.8,6.1,2.6-2.2-3.1-8.6-7.9-5.6-7.1.4.1.9.3,1.3.5,1.5.7,3.1,1.8,4.7,2.7.7.4,1.5.7,2.2,1-1.2-1.7-2.8-3.8-4.7-5.8-1.8-1.8-4-3.6-6.4-4.7-1.7-4.7.4-7.2,4.4-4.3,4.8,3.4,7.6,9.8,9,13.8,0,0,0,0,.2,0,.1,0,.2,0,.4-.1,0,0,.2,0,.3,0,1.3-3.3,1.4-10.7,2.6-7.8,0,0,0,0,0,0,.7,1.5.7,3.2.9,4.9.1.9.3,1.8.6,2.7.6-1.9,1.2-4.4,1.5-7.2.3-2.7.3-5.6-.4-8.2,2.6-4.3,5.8-4.3,6.1.7.2,3.3-.7,6.7-1.9,9.7-.8,2-1.8,3.8-2.6,5.3,3.3-2.1,7.9-7,6.9-4.3-.2.4-.4.8-.6,1.3t0,0c-.7,1.3-1.8,2.5-2.7,3.8-.6.9-1.1,1.7-1.5,2.6,0,0,0,0,0,.1,2-1.2,4.7-2.9,7.2-5.2,1.7-1.6,3.3-3.4,4.4-5.4,4.8-1.4,7.1.8,4,4.6-2.1,2.5-5.1,4.4-8,5.7-2,.9-3.9,1.6-5.5,2.1,4.1.6,10.9.3,8.4,1.5-.5.2-1,.4-1.6.6h0c-1.4.4-3.2.6-4.8.9-1.2.2-2.3.5-3.3.9,0,0,0,0,0,.1,2.4.6,5.9,1.2,9.6,1.2,2.2,0,4.4-.3,6.4-.9,4.4,2.3,4.6,5.5-.2,6.1Z" fill="#fdffff" stroke-width="0"></path><path d="M66.7,44.6c-2,.7-4.3.9-6.4.9-3.7,0-7.3-.6-9.6-1.2,0,0,0,0,0-.1,1-.4,2.1-.7,3.3-.9,1.6-.3,3.4-.5,4.8-.9h0c.6-.1,1.1-.3,1.6-.6,2.5-1.2-4.3-.9-8.4-1.5,1.6-.5,3.5-1.2,5.5-2.1,2.9-1.3,5.9-3.2,8-5.7,3.1-3.8.8-6-4-4.6-1.1,2-2.7,3.8-4.4,5.4-2.5,2.3-5.2,4-7.2,5.2,0,0,0,0,0-.1.3-.9.9-1.8,1.5-2.6.9-1.3,2-2.6,2.7-3.8t0,0c.2-.4.5-.8.6-1.3,1-2.7-3.6,2.2-6.9,4.3.9-1.5,1.8-3.3,2.6-5.3,1.2-3,2.1-6.4,1.9-9.7-.3-4.9-3.5-4.9-6.1-.7.7,2.7.7,5.5.4,8.2-.3,2.7-.9,5.2-1.5,7.2-.4-.9-.5-1.8-.6-2.7-.2-1.7-.2-3.4-.9-4.9,0,0,0,0,0,0-1.2-2.9-1.4,4.5-2.6,7.8,0,0-.2,0-.3,0,0,.1,0,.2,0,.3,0,0,0,0,0,0h0c-.1,0-.3-.1-.4-.2,0,0-.1,0-.2,0-1.4-4-4.2-10.4-9-13.8-4-2.9-6-.4-4.4,4.3,2.4,1.1,4.5,2.8,6.4,4.7,2,2,3.6,4.1,4.7,5.8-.7-.2-1.5-.6-2.2-1-1.6-.9-3.2-2-4.7-2.7-.4-.2-.9-.4-1.3-.5-3-.8,3.4,4,5.6,7.1-1.6-.8-3.7-1.8-6.1-2.6h0c-3-1-6.5-1.7-9.7-1.3-4.9.6-4.7,3.8-.2,6.1,2.6-.9,5.6-1,8.3-.9,2.7.1,5.2.6,7.1,1-.7.3-1.4.6-2.2.8-1.6.4-3.3.6-4.7,1.3-.1,0-.3.1-.4.2-2.6,1.5,4,.9,7.7,1.5-1.8.5-4.1,1.2-6.5,2.3-2.9,1.3-5.9,3.2-8,5.7-3.1,3.8-.8,6,4,4.6,1.4-2.5,3.4-4.7,5.6-6.4,2.4-2,4.9-3.5,6.6-4.5,0,0,0,0,0,0-.3,1-.9,1.9-1.6,2.9-.9,1.2-1.9,2.4-2.6,3.6,0,0,0,0,0,0-.2.4-.5.9-.6,1.3-.8,2.5,3-1.3,6.2-3.7-.8,1.4-1.7,3.1-2.5,5-1.2,3-2.1,6.4-1.9,9.7.3,4.9,3.5,4.9,6.1.7-.7-2.9-.7-6.1-.3-9,.4-2.7,1-5.1,1.6-6.9.4.9.5,2,.6,3,.1,1.8,0,3.7.7,5.2,0,0,0,0,0,0,1.2,2.8,1.6-4.8,2.9-8.2,0,0,0-.1,0-.2,0-.2.1-.4.2-.6,1.2,3.8,4.2,11,9.3,14.8,4,2.9,6,.4,4.4-4.3-2.1-1-4.1-2.5-5.8-4.2-2.6-2.5-4.6-5.3-5.9-7.2,1.2.3,2.3.9,3.4,1.6.9.5,1.8,1.1,2.7,1.5t0,0c.5.2,1,.4,1.5.6,2.7.8-1.7-2.7-4.1-5.6,1.6.8,3.5,1.7,5.7,2.4h0c3.1,1,6.5,1.7,9.8,1.3,4.9-.6,4.7-3.8.2-6.1Z" fill="#eff1f2" stroke-width="0"></path><path d="M50.9,42.5c0,.6,0,1.2-.2,1.8,0,0,0,0,0,.1-.1.5-.3,1-.5,1.5,0,0,0,0,0,0,0,0,0,.1,0,.2,0,.1-.1.2-.2.3,0,.1-.2.3-.2.4-.2.3-.5.6-.7.9-.2.2-.3.4-.5.5-.3.2-.6.5-.9.7,0,0,0,0,0,0-.5.3-.9.6-1.4.8-.2,0-.3.1-.5.2h0c-.1,0-.3,0-.4.1-.4.1-.8.2-1.3.2-.3,0-.5,0-.8,0-.6,0-1.2,0-1.8-.2-.2,0-.3,0-.5-.1h0c-.1,0-.3,0-.4-.1-.2,0-.4-.2-.6-.2-.2,0-.3-.2-.5-.2h0c-.2-.1-.4-.2-.6-.4-.2-.2-.5-.3-.7-.5-.2-.2-.5-.4-.7-.7-.2-.2-.4-.4-.5-.7,0,0,0,0,0,0-.3-.4-.6-.9-.8-1.4,0,0,0-.1,0-.2,0,0,0-.1,0-.2,0,0,0-.1,0-.2-.2-.5-.3-1-.4-1.6,0,0,0,0,0,0,0-.6,0-1.2,0-1.9,0-.2,0-.3,0-.5,0-.4.2-.8.3-1.2,0,0,0-.2,0-.2,0,0,0-.2.1-.3,0,0,0-.2.1-.3.2-.4.4-.8.7-1.2,0,0,0,0,0-.1.3-.4.6-.8,1-1.1.1-.1.2-.2.3-.3,0,0,.2-.2.3-.2.6-.4,1.2-.7,1.8-1,0,0,0,0,.1,0,.1,0,.2,0,.4-.1,0,0,.2,0,.3,0,.7-.2,1.4-.3,2.1-.3h0c.7,0,1.4,0,2.1.2,0,0,0,0,0,0,.5.2,1.1.4,1.6.6,0,0,0,0,0,0,0,0,.2.1.3.2,0,0,.1,0,.2.1.4.3.8.6,1.2.9l.2.2c0,0,.2.2.2.3.4.4.7.8.9,1.2,0,0,0,0,0,.1.3.5.5,1,.7,1.5,0,0,0,0,0,0,0,0,0,.1,0,.2h0c0,.1,0,.3,0,.4,0,.4.2.8.2,1.3,0,.1,0,.3,0,.4Z" fill="#eda539" stroke-width="0"></path><path d="M38.2,40.8c.6-.5.6-1.4,0-2-.5-.6-1.4-.6-2,0-.6.5-.6,1.4,0,2,.5.6,1.4.6,2,0Z" fill="#f4cf0e" stroke-width="0"></path><path d="M47.9,44.1c-.6.5-.6,1.4,0,2,.5.6,1.4.6,2,0,.6-.5.6-1.4,0-2-.5-.6-1.4-.6-2,0Z" fill="#f4cf0e" stroke-width="0"></path><path d="M50,41.2c-.6-.3-1.3,0-1.7.5-.3-.4-.6-.6-1.1-.7.2-.2.3-.5.4-.7.2.5.7.9,1.4.9.8,0,1.4-.7,1.3-1.5,0-.8-.7-1.4-1.5-1.3-.6,0-1.1.4-1.3,1,0-.2-.1-.3-.2-.4.2,0,.3,0,.5-.1.7-.4.9-1.2.6-1.9-.4-.7-1.2-.9-1.9-.6-.7.4-.9,1.2-.6,1.9-.3,0-.7,0-1,.3,0-.3-.1-.6-.3-.8.4,0,.9-.1,1.2-.5.5-.6.3-1.5-.3-1.9-.6-.5-1.5-.3-1.9.3-.3.5-.4,1-.1,1.5,0,0,0,0-.1,0,0,0-.2,0-.3,0,0-.1.2-.3.2-.5.2-.7-.3-1.5-1.1-1.6-.8-.2-1.5.3-1.6,1.1-.2.7.3,1.5,1.1,1.6.1,0,.2,0,.3,0-.2.2-.3.5-.3.8-.3-.2-.6-.4-1-.4.2-.3.2-.6.1-1-.2-.7-.9-1.2-1.7-1-.7.2-1.2.9-1,1.7.1.6.6,1,1.1,1-.4.6-.4,1.4,0,2-.6,0-1.1.4-1.4.9-.1-.1-.3-.3-.5-.3-.7-.3-1.5,0-1.8.8-.3.7,0,1.5.8,1.8.6.3,1.3,0,1.7-.5.2.4.6.6,1.1.7-.2.2-.3.4-.4.7-.2-.5-.7-.9-1.3-.9-.8,0-1.4.7-1.3,1.4,0,.8.7,1.4,1.4,1.3.6,0,1.1-.4,1.3-1,0,.1.1.3.2.4-.2,0-.3,0-.5.1-.7.4-.9,1.2-.6,1.9.4.7,1.2.9,1.9.6.7-.4.9-1.2.6-1.8.3,0,.7-.1,1-.3,0,.3.1.6.3.8-.4,0-.9.2-1.1.5-.5.6-.3,1.5.3,1.9.6.5,1.5.3,1.9-.3.3-.4.4-1,.1-1.5,0,0,0,0,.1,0,0,0,.2,0,.3,0,0,.1-.2.3-.2.5-.2.7.3,1.5,1.1,1.6.8.2,1.5-.3,1.6-1.1.2-.7-.3-1.5-1.1-1.6-.1,0-.2,0-.3,0,.2-.2.3-.5.3-.7.3.2.6.4,1,.4-.1.3-.2.6-.1,1,.2.7.9,1.2,1.7,1,.7-.2,1.2-.9,1-1.7-.1-.6-.6-1-1.1-1,.4-.6.4-1.3,0-1.9.6,0,1.1-.4,1.4-.9.1.1.3.3.5.4.7.3,1.5,0,1.8-.8.3-.7,0-1.5-.7-1.8ZM41.9,44.9c0-.4-.2-.7-.4-1-.3-.3-.6-.5-.9-.5.2-.3.4-.6.4-1,0-.4,0-.7-.3-1,.4,0,.7-.2,1-.4.3-.3.5-.6.5-.9.3.2.6.4,1,.4.4,0,.7,0,1-.3,0,.4.2.7.4,1,.3.3.6.5.9.5-.2.3-.4.6-.4,1,0,.4,0,.7.3,1-.4,0-.7.2-1,.4-.3.3-.5.6-.5.9-.3-.2-.6-.4-1-.4-.4,0-.7,0-1,.3Z" fill="#f4cf0e" stroke-width="0"></path><path d="M43.2,14.8c.2,0,.5,0,.7.1,1,.3,1.9,1.4,2.5,3.3h0c.7-1,1.5-1.7,2.3-2.1.4-.2.9-.3,1.3-.3s.3,0,.4,0c.6.1,1,.4,1.4,1,.5.7.9,1.8.9,3.2.1,1.7,0,3.4-.4,5.1-.2.7-.4,1.5-.6,2.2,2.8-3.1,5.5-4.8,7.5-5.3.5-.1.9-.2,1.3-.2s.7,0,1,.1c.7.2,1.2.7,1.4,1.3.4.9.2,2.2-.6,3.9h0c.6,0,1.2-.1,1.7-.1.5,0,1,0,1.4.2.6.2,1.1.5,1.5,1,.3.5.5,1,.4,1.7-.1.9-.6,1.9-1.5,3-1.1,1.3-2.4,2.4-3.8,3.4-.6.4-1.3.8-1.9,1.2.8,0,1.6-.1,2.3-.1,3,0,5.3.5,6.8,1.4.8.4,1.4,1,1.7,1.5.3.6.4,1.3.1,1.9-.4.9-1.4,1.8-3.1,2.5h0c1.1.7,1.8,1.4,2.3,2.1.3.6.5,1.2.4,1.7,0,.6-.4,1.1-.9,1.5-.7.6-1.7,1-3.2,1.2-.7,0-1.4.1-2.1.1-1,0-2,0-3-.2-.8-.1-1.5-.3-2.2-.4,3.2,2.6,5.1,5.1,5.8,7.1.3.9.3,1.6.2,2.3-.2.7-.6,1.2-1.2,1.5-.4.2-.8.3-1.4.3s-1.6-.2-2.6-.6h0c.3,1.2.4,2.3.2,3.1-.1.7-.4,1.2-.9,1.5-.4.3-.9.5-1.5.5s-.1,0-.2,0c-.9,0-1.9-.5-3.1-1.3-2.2-1.6-3.9-3.7-5.3-5.9-1.1-1.7-1.9-3.5-2.6-5.1,1.3,6.7.7,11.8-.7,14.5-.5,1-1,1.7-1.7,2.1-.4.3-.8.4-1.2.5,0,0-.1,0-.2,0-.2,0-.5,0-.7-.1-1-.3-1.9-1.4-2.5-3.3h0c-.7,1-1.5,1.7-2.3,2.1-.4.2-.9.3-1.3.3s-.3,0-.4,0c-.6-.1-1-.4-1.4-1-.5-.7-.9-1.8-.9-3.2-.1-1.7,0-3.4.4-5.1.2-.7.4-1.5.6-2.2-2.8,3.1-5.5,4.8-7.5,5.3-.5.1-.9.2-1.3.2s-.7,0-1-.1c-.7-.2-1.2-.7-1.4-1.3-.4-.9-.2-2.2.6-3.9h0c-.6,0-1.2.1-1.7.1s-1,0-1.4-.2c-.6-.2-1.1-.5-1.5-1-.3-.5-.5-1-.4-1.7.1-.9.6-1.9,1.5-3,1.1-1.3,2.4-2.4,3.8-3.4.6-.4,1.3-.8,1.9-1.2-.8,0-1.6.1-2.3.1-3,0-5.3-.5-6.8-1.4-.8-.4-1.4-1-1.7-1.5-.3-.6-.4-1.3-.1-1.9.4-.9,1.4-1.8,3.1-2.5h0c-1.1-.7-1.8-1.4-2.3-2.1-.3-.6-.5-1.2-.4-1.7,0-.6.4-1.1.9-1.5.7-.6,1.7-1,3.2-1.2.7,0,1.4-.1,2.1-.1,1,0,2,0,3,.2.8.1,1.5.3,2.2.4-3.3-2.6-5.1-5.1-5.8-7.1-.3-.9-.3-1.6-.2-2.3.2-.7.6-1.2,1.2-1.5.4-.2.8-.3,1.4-.3.7,0,1.6.2,2.6.6h0c-.3-1.2-.4-2.3-.2-3.1.1-.7.4-1.2.9-1.5.4-.3.9-.5,1.5-.5s.1,0,.2,0c.9,0,1.9.5,3.1,1.3,2.4,1.8,4.4,4.3,5.9,6.8.8,1.4,1.5,2.8,2.1,4.2-1.3-6.7-.6-11.8.7-14.6.5-1,1.1-1.7,1.7-2.1.4-.3.8-.4,1.2-.5,0,0,.1,0,.2,0M43.2,13.8c0,0-.2,0-.2,0-.6,0-1.2.3-1.7.6-.8.5-1.4,1.4-2,2.5-1.2,2.4-1.7,5.7-1.5,9.6-1.7-2.7-3.6-4.9-5.7-6.4-1.3-.9-2.5-1.5-3.6-1.5,0,0-.1,0-.2,0-.8,0-1.6.3-2.1.7-.6.5-1,1.2-1.2,2.1-.1.6-.2,1.2,0,1.9-.5,0-.9-.1-1.3-.1-.7,0-1.3.1-1.8.4-.9.4-1.5,1.2-1.8,2.2-.2.8-.1,1.8.2,2.8.5,1.7,1.7,3.5,3.5,5.2-.7,0-1.3,0-2,0s-1.5,0-2.2.1c-1.6.2-2.8.7-3.7,1.4-.7.6-1.1,1.3-1.2,2.1,0,.8,0,1.6.6,2.3.3.5.7,1,1.2,1.4-1.1.7-1.8,1.4-2.1,2.3-.4.9-.3,1.9.2,2.8.4.7,1.1,1.4,2.1,1.9,1.5.8,3.6,1.3,6.1,1.5-1.2.9-2.2,1.9-3,2.9-1,1.2-1.6,2.4-1.7,3.5-.1.9,0,1.7.6,2.4.5.6,1.1,1.1,2,1.3.5.1,1.1.2,1.7.2s.1,0,.2,0c-.3,1.2-.3,2.3,0,3.1.4.9,1.1,1.6,2,1.9.4.1.8.2,1.3.2s1,0,1.5-.2c1.7-.4,3.6-1.5,5.5-3.1-.2,1.5-.3,2.9-.2,4.2,0,1.6.5,2.9,1.1,3.8.5.7,1.2,1.2,2.1,1.3.2,0,.4,0,.6,0,.6,0,1.2-.2,1.8-.5.5-.3,1-.6,1.5-1.1.8,1.5,1.8,2.2,2.5,2.4.3.1.7.2,1,.2s.2,0,.3,0c.6,0,1.2-.3,1.7-.6.8-.5,1.4-1.4,2-2.5,1.2-2.4,1.7-5.7,1.5-9.6,0,0,0,.1.1.2,1.7,2.7,3.6,4.8,5.6,6.2,1.3.9,2.5,1.5,3.6,1.5,0,0,.1,0,.2,0,.8,0,1.6-.3,2.1-.7.6-.5,1-1.2,1.2-2.1.1-.6.2-1.2,0-1.9.5,0,.9.1,1.3.1.7,0,1.3-.1,1.8-.4.9-.4,1.5-1.2,1.8-2.2.2-.8.1-1.8-.2-2.8-.5-1.7-1.7-3.5-3.5-5.2.7,0,1.3,0,2,0s1.5,0,2.2-.1c1.6-.2,2.8-.7,3.7-1.4.7-.6,1.1-1.3,1.2-2.1,0-.8,0-1.6-.6-2.3-.3-.5-.7-1-1.2-1.4,1.1-.7,1.8-1.4,2.1-2.3.4-.9.3-1.9-.2-2.8-.4-.7-1.1-1.4-2.1-1.9-1.5-.8-3.6-1.3-6.1-1.5,1.2-.9,2.2-1.9,3-2.9,1-1.2,1.6-2.4,1.7-3.5.1-.9,0-1.7-.6-2.4-.5-.6-1.1-1.1-2-1.3-.5-.1-1.1-.2-1.7-.2,0,0-.1,0-.2,0,.3-1.2.3-2.3,0-3.1-.4-.9-1.1-1.6-2-1.9-.4-.1-.8-.2-1.3-.2s-1,0-1.5.2c-1.7.4-3.6,1.5-5.5,3.1.2-1.5.3-2.9.2-4.2,0-1.6-.5-2.9-1.1-3.8-.5-.7-1.2-1.2-2.1-1.3-.2,0-.4,0-.6,0-.6,0-1.2.2-1.8.5-.5.3-1,.6-1.5,1.1-.8-1.5-1.8-2.2-2.5-2.4-.3-.1-.7-.2-1-.2h0Z" fill="#000" stroke-width="0"></path></g></svg>