<svg xmlns="http://www.w3.org/2000/svg" id="uuid-881e0665-3296-4085-b38c-e69c66dcec3a" viewBox="0 0 86 86"><g id="uuid-6cf50d48-4824-475c-a8c1-7c8eaf078a8b"><circle cx="43" cy="43" r="42.5" fill="#dfded3" stroke="#000" stroke-miterlimit="10"></circle><path d="M11.5,56.8s0,0,0,.1c.7.2,1.4.5,2.1.7,1.2.3,2.5.6,3.7.8,2.6.5,5.3.7,7.9,1.1,4.8.6,9.6,1.4,14.4,1.8,4.7.4,9.4,0,14-.3,4.3-.3,8.6-.7,12.8-1.6,2.1-.4,4.2-1,6.2-1.7.7-.2,1.4-.5,2-.8,0-.8-.1-1.5-.6-2.1-.3-.4-.7-.7-1.1-.9-.2,0-.5,0-.7-.2,0,0,0,0,0,0,0,0,0,0,0,0-.4,0-.8,0-1.2-.2-1.5-.7-.7-3.9-1.3-5.2-.7-1.4-1.8-2.5-3.2-3.2-1.6-.7-3.4-.3-4.9-1.2-2.7-1.5-1.8-5.2-3.5-7.4-.9-1.1-2.2-1.7-3.4-2.4-1.3-.7-2.5-1.6-3.1-2.9-.4-.9-.5-1.8-.8-2.7-.2-.8-.6-1.7-1-2.4-.9-1.5-2.1-2.8-3.7-3.5-1.5-.7-3.6-.9-5.1,0-.7.5-1.1,1.4-1.8,2-.6.6-1.4,1-2.1,1.5-1.6.9-2.9,2.1-3.7,3.7-.4.8-.7,1.7-1.1,2.5-.4.7-1,1.3-1.7,1.8-.7.5-1.4.8-2.1,1.3-.7.5-1.3,1.1-1.7,1.8-.4.7-.8,1.5-1.2,2.3-.4.7-1,1.3-1.6,1.9-1.3,1.1-2.8,1.8-4,2.9-1.3,1.2-1.9,2.8-2.6,4.2-.4.7-.8,1.4-1.3,2.1-.6.7-1.4,1.2-2.1,1.7-1.4,1.1-2.4,2.7-2.6,4.5Z" fill="#91be2d" stroke-width="0"></path><path d="M75.8,56.5c0-1-.5-2-1.2-2.7-.4-.5-1.6-1-1.6-1-.2,0-.3-.1-.5-.1-.3,0-1,0-1.1-.3-.2-.3,0-.8,0-1,0,0,0-.1,0-.2v-.8c0,0,0-.2,0-.3-.4-3.2-2.9-6-6.1-6.5-.9-.1-1.8-.1-2.7-.4-.7-.3-1.2-.8-1.5-1.4-.6-1.3-.7-2.8-1.2-4.2-.5-1.5-1.5-2.5-2.7-3.3-1.2-.8-2.6-1.3-3.7-2.3-1.3-1.3-1.3-3.3-1.9-5-.7-1.6-1.7-3.2-3.1-4.3-1.4-1.1-3.1-1.8-4.9-1.7-.9,0-1.8.2-2.6.6-.8.4-1.2,1.2-1.8,1.9-1.2,1.4-3,2-4.3,3.2-.7.6-1.3,1.3-1.7,2.1-.5.8-.8,1.8-1.2,2.6-.4.8-.9,1.5-1.6,2-.7.5-1.5.9-2.2,1.3-.7.5-1.3,1.1-1.7,1.8-.5.7-.8,1.6-1.3,2.3-.9,1.5-2.3,2.4-3.8,3.4-.7.5-1.4,1-2,1.6-.6.6-1,1.3-1.4,2-.8,1.4-1.3,3-2.4,4.2l-.7.7c-.6.5-1.2.9-1.8,1.4-.3.3-.6.6-.8,1l-.5.8c0,.2-.2.3-.2.5-.3.7-.5,1.5-.6,2.3v.9c1.8.7,3.7,1.2,5.5,1.5,2.3.4,4.6.8,6.9,1.1,4.9.7,9.8,1.4,14.8,2,2.5.3,4.9.4,7.4.3,2.3,0,4.7-.2,7-.3,4.4-.2,8.8-.5,13.1-1.2,2.4-.4,4.7-1,7-1.8,1.1-.4,2.3-.8,3.4-1.3v-1.4ZM16.2,50.6c.5-.6,1-1.3,1.3-2.1.8-1.5,1.4-3.1,2.6-4.2,1.2-1.1,2.7-1.8,4-2.9.6-.5,1.2-1.2,1.6-1.9.4-.7.8-1.5,1.2-2.3.4-.7,1-1.3,1.7-1.8.7-.4,1.4-.8,2.1-1.3.7-.5,1.3-1.1,1.7-1.8.4-.8.7-1.7,1.1-2.5.9-1.6,2.2-2.8,3.7-3.7.7-.4,1.5-.9,2.1-1.5.6-.6,1-1.5,1.8-2,1.5-1,3.6-.8,5.1,0,1.6.7,2.9,2,3.7,3.5.4.8.8,1.6,1,2.4.2.9.4,1.8.8,2.7.6,1.4,1.8,2.2,3.1,2.9,1.2.7,2.6,1.3,3.4,2.4,1.7,2.2.8,5.9,3.5,7.4,1.5.8,3.3.5,4.9,1.2,1.4.6,2.5,1.8,3.2,3.2.6,1.3-.2,4.5,1.3,5.2.4.2.8.1,1.2.2,0,0,0,0,0,0,0,0,0,0,0,0,.2.2.4.2.7.2.4.2.8.5,1.1.9.5.6.7,1.3.6,2.1-.7.3-1.4.6-2,.8-2,.7-4.1,1.3-6.2,1.7-4.2.9-8.5,1.3-12.8,1.6-4.7.3-9.4.7-14,.3-4.8-.4-9.6-1.2-14.4-1.8-2.6-.4-5.3-.6-7.9-1.1-1.2-.2-2.5-.5-3.7-.8-.7-.2-1.4-.4-2.1-.7,0,0,0,0,0-.1.2-1.8,1.2-3.4,2.6-4.5.7-.6,1.5-1.1,2.1-1.7Z" fill="#000" stroke-width="0"></path><path d="M72.6,57.8c.7-.2,1.4-.5,2-.8,0-.8-.1-1.5-.6-2.1,0,0,0,0-.1-.1-1.5,1.3-3,2.7-4.9,2.4-.6,0-1.1-.3-1.7-.3-1.6,0-2.7,1.8-4.3,2.1-1.5.3-2.8-.9-4.2-1.4-3.6-1.3-7.7,1.4-11.3,0-1.8-.7-3.1-2.4-5-2.9-1-.2-2.2,0-3-.7-1.6-1.1-.9-3.9-2.2-5.4-.4-.5-1-.8-1.5-1.2-1.2-1.3-1.1-3.3-.9-5.1.4-2.8.8-5.8,2.4-8.1.6-.9,1.4-1.7,1.8-2.6.6-1.2.7-2.6,1-4,.5-2.1,1.5-4,2.9-5.6-.7,0-1.3.3-1.9.6-.7.5-1.1,1.4-1.8,2-.6.6-1.4,1-2.1,1.5-1.6.9-2.9,2.1-3.7,3.7-.4.8-.7,1.7-1.1,2.5-.4.7-1,1.3-1.7,1.8-.7.5-1.4.8-2.1,1.3-.7.5-1.3,1.1-1.7,1.8-.4.7-.8,1.5-1.2,2.3-.4.7-1,1.3-1.6,1.9-1.3,1.1-2.8,1.8-4,2.9-1.3,1.2-1.9,2.8-2.6,4.2-.4.7-.8,1.4-1.3,2.1-.6.7-1.4,1.2-2.1,1.7-1.4,1.1-2.4,2.7-2.6,4.5,0,0,0,0,0,.1.7.2,1.4.5,2.1.7,1.2.3,2.5.6,3.7.8,2.6.5,5.3.7,7.9,1.1,4.8.6,9.6,1.4,14.4,1.8,4.7.4,9.4,0,14-.3,4.3-.3,8.6-.7,12.8-1.6,2.1-.4,4.2-1,6.2-1.7Z" fill="#59a636" stroke-width="0"></path><path d="M69.7,48.3c-.7-1.4-1.8-2.5-3.2-3.2-1.6-.7-3.4-.3-4.9-1.2-2.7-1.5-1.8-5.2-3.5-7.4-.9-1.1-2.2-1.7-3.4-2.4-1.3-.7-2.5-1.6-3.1-2.9-.4-.9-.5-1.8-.8-2.7-.2-.8-.6-1.7-1-2.4-.8-1.5-2.1-2.8-3.6-3.5,1.4,1.2,2.4,2.7,2.8,4.5.5,2.2.2,4.7,1.6,6.5.5.6,1.1,1,1.7,1.5,1.5,1.3,2.7,2.9,3.3,4.8.3.8.5,1.7,1.2,2.2.6.5,1.5.6,2.3,1,2.2,1.2,2.2,4.8,4.5,5.9.7.4,1.6.4,2.4.6,1.5.4,2.8,1.3,4.1,2.1-.1-1.2,0-2.6-.4-3.4Z" fill="#bdd370" stroke-width="0"></path><path d="M46.4,24.7c0,0,0-.2-.1-.3,0,0-.2-.1-.3-.2-.1,0-.2,0-.3,0,0,0,0,0,0,0,0,0,0,0,0,0,0,0,0,0-.1,0,0,0-.1,0-.2.2,0,0,0,.1-.1.2,0,0,0,.1,0,.2,0,0,0,.2,0,.2,0,0,0,.1.1.2,0,0,0,0,.1,0,0,0,.1,0,.2,0,0,0,.2,0,.2,0,0,0,0,0,.1,0,0,0,.1,0,.2-.2,0,0,0-.1.1-.2,0,0,0-.1,0-.2,0,0,0,0,0,0,0,0,0-.1,0-.2Z" fill="#bdd370" stroke-width="0"></path><path d="M48.4,27.5c0,0,0,0,0-.1h0c0,0,0,0-.2,0,0,0,0,0-.1,0,0,0,0,0,0,0,0,0,0,0,0,0,0,0,0,0,0,.1,0,0,0,0,0,0,0,0,0,0,0,.1h0c0,0,0,0,.2,0,0,0,0,0,.1,0,0,0,0,0,0,0,0,0,0,0,0,0,0,0,0,0,0-.1,0,0,0,0,0,0Z" fill="#bdd370" stroke-width="0"></path><path d="M47.6,32c0-.1,0-.2-.2-.3,0,0,0,0-.1,0,0,0-.2,0-.3,0,0,0-.2,0-.2,0,0,0-.1,0-.2.1,0,0-.1.1-.1.2,0,0,0,.2,0,.2,0,0,0,.1,0,.2,0,.1,0,.2.2.3,0,0,0,0,.1,0,0,0,.2,0,.3,0,0,0,.2,0,.2,0,0,0,.1,0,.2-.1,0,0,.1-.1.1-.2,0,0,0-.2,0-.2,0,0,0-.1,0-.2Z" fill="#bdd370" stroke-width="0"></path><path d="M51.4,35.4c0-.1,0-.2-.2-.3,0,0,0,0-.1,0,0,0-.2,0-.3,0,0,0-.2,0-.2,0,0,0-.1,0-.2.1,0,0-.1.1-.1.2,0,0,0,.2,0,.2,0,0,0,.1,0,.2,0,.1,0,.2.2.3,0,0,0,0,.1,0,0,0,.2,0,.3,0,0,0,.2,0,.2,0,0,0,.1,0,.2-.1,0,0,.1-.1.1-.2,0,0,0-.2,0-.2,0,0,0-.1,0-.2Z" fill="#bdd370" stroke-width="0"></path><path d="M42.8,26.1c0-.1,0-.2-.2-.3,0,0,0,0-.1,0,0,0-.2,0-.3,0,0,0-.2,0-.2,0,0,0-.1,0-.2.1,0,0,0,.1-.1.2,0,0,0,.1,0,.2,0,0,0,.1,0,.2,0,.1,0,.2.2.3,0,0,0,0,.1,0,0,0,.2,0,.3,0,0,0,.2,0,.2,0,0,0,.1,0,.2-.1,0,0,0-.1.1-.2,0,0,0-.1,0-.2v-.2Z" fill="#59a636" stroke-width="0"></path><path d="M43.8,30.4s0,0,0,0c0,0,0,0,0-.1,0,0,0,0,0,0,0,0,0,0,0,0,0,0,0,0,0,0,0,0,0,0,0,0,0,0,0,0,0-.1-.1-.1-.3-.2-.4-.2-.1,0-.3,0-.4,0,0,0-.1,0-.1,0,0,0,0,0,0,0,0,0-.1,0-.2,0,0,0,0,0-.1,0,0,0-.1.1-.1.2,0,0,0,0,0,.1,0,0,0,.2,0,.2,0,.1,0,.3,0,.4,0,.2.2.3.3.4.2.1.3.1.5,0h-.1c0,0,.1,0,.2,0,0,0,0,0,0,0,0,0,.1,0,.2,0,0,0,0,0,.1-.1,0,0,.1-.1.2-.2,0-.1,0-.2.1-.3,0,0,0-.1,0-.2Z" fill="#59a636" stroke-width="0"></path><path d="M39.5,36.1c0,0,0-.1-.1-.2,0,0,0,0,0,0,0,0-.1-.1-.2-.1,0,0,0,0-.1,0,0,0-.1,0-.2,0,0,0,0,0,0,0,0,0,.1,0,.2,0,0,0-.2,0-.2,0,0,0-.1,0-.2,0,0,0,0,0,0,0-.1,0-.3.1-.4.2-.1.1-.2.2-.2.4,0,0,0,0,0,0,0,.1,0,.1,0,.2,0,0,0,.1,0,.2,0,0,0,0,0,0,0,0,0,0,0,0,0,0,0,.1,0,.2,0,0,.1.1.2.2,0,0,0,0,0,0,0,0,0,0,0,0,0,0,.2,0,.2,0,0,0,0,0,.1,0,0,0,0,0,0,0,0,0,0,0,0,0,.1,0,.3,0,.3,0,0,0,0,0,0,0,0,0,0,0,0,0,0,0,.2-.1.2-.2,0,0,0-.2,0-.3,0-.1,0-.2,0-.3Z" fill="#59a636" stroke-width="0"></path><path d="M42.7,41.5s0,0,0-.1c0,0,0,0,0,0,0,0,0,0,0,0,0,0,0,0,0,0,0,0,0,0,0,0,0,0,0-.1-.1-.2h0s0,0,0,0c0,0,0,0,0,0,0,0,0,0,0,0,0,0,0,0,0,0,0,0-.1,0-.2,0,0,0-.2,0-.2,0,0,0-.1,0-.2.1,0,0,0,.1-.1.2,0,0,0,.1,0,.2,0,0,0,.2,0,.2,0,0,0,.1.1.2,0,0,0,0,.1,0,0,0,.2,0,.3,0h.2c0,0,.2,0,.3-.2,0,0,0,0,0-.1,0,0,0-.1,0-.2,0,0,0-.2,0-.2Z" fill="#59a636" stroke-width="0"></path><path d="M41.4,49.7s0,0,0-.1c0,0,0,0-.1,0,0,0-.1,0-.2,0,0,0-.1,0-.2,0,0,0,0,0,0,0,0,0-.2,0-.2.1,0,0,0,0,0,.1,0,0,0,.2,0,.3,0,0,0,.1,0,.2,0,0,0,.1.1.2,0,0,.1,0,.2.1,0,0,.1,0,.2,0,0,0,.2,0,.3,0,0,0,.1,0,.2-.1,0,0,0,0,0-.1,0,0,0-.1,0-.2,0,0,0,0,0-.1,0,0,0-.1,0-.2Z" fill="#59a636" stroke-width="0"></path></g></svg>